<?xml version="1.0" encoding="utf-8" standalone="no"?>
<!DOCTYPE svg PUBLIC "-//W3C//DTD SVG 1.1//EN"
  "http://www.w3.org/Graphics/SVG/1.1/DTD/svg11.dtd">
<svg xmlns:xlink="http://www.w3.org/1999/xlink" width="864pt" height="432pt" viewBox="0 0 864 432" xmlns="http://www.w3.org/2000/svg" version="1.1">
 <metadata>
  <rdf:RDF xmlns:dc="http://purl.org/dc/elements/1.1/" xmlns:cc="http://creativecommons.org/ns#" xmlns:rdf="http://www.w3.org/1999/02/22-rdf-syntax-ns#">
   <cc:Work>
    <dc:type rdf:resource="http://purl.org/dc/dcmitype/StillImage"/>
    <dc:date>2025-11-19T17:42:51.288006</dc:date>
    <dc:format>image/svg+xml</dc:format>
    <dc:creator>
     <cc:Agent>
      <dc:title>Matplotlib v3.10.5, https://matplotlib.org/</dc:title>
     </cc:Agent>
    </dc:creator>
   </cc:Work>
  </rdf:RDF>
 </metadata>
 <defs>
  <style type="text/css">*{stroke-linejoin: round; stroke-linecap: butt}</style>
 </defs>
 <g id="figure_1">
  <g id="patch_1">
   <path d="M 0 432 
L 864 432 
L 864 0 
L 0 0 
z
" style="fill: #ffffff"/>
  </g>
  <g id="axes_1">
   <g id="patch_2">
    <path d="M 61.344 267.696 
L 212.976 267.696 
Q 549.936 267.696 549.936 110.256 
L 549.936 63.024 
Q 549.936 -94.416 212.976 -94.416 
L 61.344 -94.416 
Q -275.616 -94.416 -275.616 63.024 
L -275.616 110.256 
Q -275.616 267.696 61.344 267.696 
z
" clip-path="url(#pffdbcaf0db)" style="fill: #f7fbff; stroke: #333333; stroke-linejoin: miter"/>
   </g>
   <g id="patch_3">
    <path d="M 212.976 267.696 
L 364.608 267.696 
Q 701.568 267.696 701.568 110.256 
L 701.568 63.024 
Q 701.568 -94.416 364.608 -94.416 
L 212.976 -94.416 
Q -123.984 -94.416 -123.984 63.024 
L -123.984 110.256 
Q -123.984 267.696 212.976 267.696 
z
" clip-path="url(#pffdbcaf0db)" style="fill: #f7fbff; stroke: #333333; stroke-linejoin: miter"/>
   </g>
   <g id="patch_4">
    <path d="M 364.608 267.696 
L 516.24 267.696 
Q 853.2 267.696 853.2 110.256 
L 853.2 63.024 
Q 853.2 -94.416 516.24 -94.416 
L 364.608 -94.416 
Q 27.648 -94.416 27.648 63.024 
L 27.648 110.256 
Q 27.648 267.696 364.608 267.696 
z
" clip-path="url(#pffdbcaf0db)" style="fill: #f7fbff; stroke: #333333; stroke-linejoin: miter"/>
   </g>
   <g id="patch_5">
    <path d="M 516.24 267.696 
L 667.872 267.696 
Q 1004.832 267.696 1004.832 110.256 
L 1004.832 63.024 
Q 1004.832 -94.416 667.872 -94.416 
L 516.24 -94.416 
Q 179.28 -94.416 179.28 63.024 
L 179.28 110.256 
Q 179.28 267.696 516.24 267.696 
z
" clip-path="url(#pffdbcaf0db)" style="fill: #f7fbff; stroke: #333333; stroke-linejoin: miter"/>
   </g>
   <g id="patch_6">
    <path d="M 667.872 267.696 
L 819.504 267.696 
Q 1156.464 267.696 1156.464 110.256 
L 1156.464 63.024 
Q 1156.464 -94.416 819.504 -94.416 
L 667.872 -94.416 
Q 330.912 -94.416 330.912 63.024 
L 330.912 110.256 
Q 330.912 267.696 667.872 267.696 
z
" clip-path="url(#pffdbcaf0db)" style="fill: #f7fbff; stroke: #333333; stroke-linejoin: miter"/>
   </g>
   <g id="patch_7">
    <path d="M 61.344 366.096 
L 212.976 366.096 
Q 549.936 366.096 549.936 208.656 
L 549.936 161.424 
Q 549.936 3.984 212.976 3.984 
L 61.344 3.984 
Q -275.616 3.984 -275.616 161.424 
L -275.616 208.656 
Q -275.616 366.096 61.344 366.096 
z
" clip-path="url(#pffdbcaf0db)" style="fill: #ffffff; stroke: #333333; stroke-linejoin: miter"/>
   </g>
   <g id="patch_8">
    <path d="M 212.976 366.096 
L 364.608 366.096 
Q 701.568 366.096 701.568 208.656 
L 701.568 161.424 
Q 701.568 3.984 364.608 3.984 
L 212.976 3.984 
Q -123.984 3.984 -123.984 161.424 
L -123.984 208.656 
Q -123.984 366.096 212.976 366.096 
z
" clip-path="url(#pffdbcaf0db)" style="fill: #fff7f0; stroke: #333333; stroke-linejoin: miter"/>
   </g>
   <g id="patch_9">
    <path d="M 364.608 366.096 
L 516.24 366.096 
Q 853.2 366.096 853.2 208.656 
L 853.2 161.424 
Q 853.2 3.984 516.24 3.984 
L 364.608 3.984 
Q 27.648 3.984 27.648 161.424 
L 27.648 208.656 
Q 27.648 366.096 364.608 366.096 
z
" clip-path="url(#pffdbcaf0db)" style="fill: #ffffff; stroke: #333333; stroke-linejoin: miter"/>
   </g>
   <g id="patch_10">
    <path d="M 516.24 366.096 
L 667.872 366.096 
Q 1004.832 366.096 1004.832 208.656 
L 1004.832 161.424 
Q 1004.832 3.984 667.872 3.984 
L 516.24 3.984 
Q 179.28 3.984 179.28 161.424 
L 179.28 208.656 
Q 179.28 366.096 516.24 366.096 
z
" clip-path="url(#pffdbcaf0db)" style="fill: #ffffff; stroke: #333333; stroke-linejoin: miter"/>
   </g>
   <g id="patch_11">
    <path d="M 667.872 366.096 
L 819.504 366.096 
Q 1156.464 366.096 1156.464 208.656 
L 1156.464 161.424 
Q 1156.464 3.984 819.504 3.984 
L 667.872 3.984 
Q 330.912 3.984 330.912 161.424 
L 330.912 208.656 
Q 330.912 366.096 667.872 366.096 
z
" clip-path="url(#pffdbcaf0db)" style="fill: #ffffff; stroke: #333333; stroke-linejoin: miter"/>
   </g>
   <g id="patch_12">
    <path d="M 61.344 464.496 
L 212.976 464.496 
Q 549.936 464.496 549.936 307.056 
L 549.936 259.824 
Q 549.936 102.384 212.976 102.384 
L 61.344 102.384 
Q -275.616 102.384 -275.616 259.824 
L -275.616 307.056 
Q -275.616 464.496 61.344 464.496 
z
" clip-path="url(#pffdbcaf0db)" style="fill: #ffffff; stroke: #333333; stroke-linejoin: miter"/>
   </g>
   <g id="patch_13">
    <path d="M 212.976 464.496 
L 364.608 464.496 
Q 701.568 464.496 701.568 307.056 
L 701.568 259.824 
Q 701.568 102.384 364.608 102.384 
L 212.976 102.384 
Q -123.984 102.384 -123.984 259.824 
L -123.984 307.056 
Q -123.984 464.496 212.976 464.496 
z
" clip-path="url(#pffdbcaf0db)" style="fill: #ffffff; stroke: #333333; stroke-linejoin: miter"/>
   </g>
   <g id="patch_14">
    <path d="M 364.608 464.496 
L 516.24 464.496 
Q 853.2 464.496 853.2 307.056 
L 853.2 259.824 
Q 853.2 102.384 516.24 102.384 
L 364.608 102.384 
Q 27.648 102.384 27.648 259.824 
L 27.648 307.056 
Q 27.648 464.496 364.608 464.496 
z
" clip-path="url(#pffdbcaf0db)" style="fill: #ffffff; stroke: #333333; stroke-linejoin: miter"/>
   </g>
   <g id="patch_15">
    <path d="M 516.24 464.496 
L 667.872 464.496 
Q 1004.832 464.496 1004.832 307.056 
L 1004.832 259.824 
Q 1004.832 102.384 667.872 102.384 
L 516.24 102.384 
Q 179.28 102.384 179.28 259.824 
L 179.28 307.056 
Q 179.28 464.496 516.24 464.496 
z
" clip-path="url(#pffdbcaf0db)" style="fill: #ffffff; stroke: #333333; stroke-linejoin: miter"/>
   </g>
   <g id="patch_16">
    <path d="M 667.872 464.496 
L 819.504 464.496 
Q 1156.464 464.496 1156.464 307.056 
L 1156.464 259.824 
Q 1156.464 102.384 819.504 102.384 
L 667.872 102.384 
Q 330.912 102.384 330.912 259.824 
L 330.912 307.056 
Q 330.912 464.496 667.872 464.496 
z
" clip-path="url(#pffdbcaf0db)" style="fill: #ffffff; stroke: #333333; stroke-linejoin: miter"/>
   </g>
   <g id="patch_17">
    <path d="M 61.344 562.896 
L 212.976 562.896 
Q 549.936 562.896 549.936 405.456 
L 549.936 358.224 
Q 549.936 200.784 212.976 200.784 
L 61.344 200.784 
Q -275.616 200.784 -275.616 358.224 
L -275.616 405.456 
Q -275.616 562.896 61.344 562.896 
z
" clip-path="url(#pffdbcaf0db)" style="fill: #ffffff; stroke: #333333; stroke-linejoin: miter"/>
   </g>
   <g id="patch_18">
    <path d="M 212.976 562.896 
L 364.608 562.896 
Q 701.568 562.896 701.568 405.456 
L 701.568 358.224 
Q 701.568 200.784 364.608 200.784 
L 212.976 200.784 
Q -123.984 200.784 -123.984 358.224 
L -123.984 405.456 
Q -123.984 562.896 212.976 562.896 
z
" clip-path="url(#pffdbcaf0db)" style="fill: #ffffff; stroke: #333333; stroke-linejoin: miter"/>
   </g>
   <g id="patch_19">
    <path d="M 364.608 562.896 
L 516.24 562.896 
Q 853.2 562.896 853.2 405.456 
L 853.2 358.224 
Q 853.2 200.784 516.24 200.784 
L 364.608 200.784 
Q 27.648 200.784 27.648 358.224 
L 27.648 405.456 
Q 27.648 562.896 364.608 562.896 
z
" clip-path="url(#pffdbcaf0db)" style="fill: #ffffff; stroke: #333333; stroke-linejoin: miter"/>
   </g>
   <g id="patch_20">
    <path d="M 516.24 562.896 
L 667.872 562.896 
Q 1004.832 562.896 1004.832 405.456 
L 1004.832 358.224 
Q 1004.832 200.784 667.872 200.784 
L 516.24 200.784 
Q 179.28 200.784 179.28 358.224 
L 179.28 405.456 
Q 179.28 562.896 516.24 562.896 
z
" clip-path="url(#pffdbcaf0db)" style="fill: #ffffff; stroke: #333333; stroke-linejoin: miter"/>
   </g>
   <g id="patch_21">
    <path d="M 667.872 562.896 
L 819.504 562.896 
Q 1156.464 562.896 1156.464 405.456 
L 1156.464 358.224 
Q 1156.464 200.784 819.504 200.784 
L 667.872 200.784 
Q 330.912 200.784 330.912 358.224 
L 330.912 405.456 
Q 330.912 562.896 667.872 562.896 
z
" clip-path="url(#pffdbcaf0db)" style="fill: #fff7f0; stroke: #333333; stroke-linejoin: miter"/>
   </g>
   <g id="text_1">
    <!-- Imputer -->
    <g transform="translate(117.379531 89.399375) scale(0.1 -0.1)">
     <defs>
      <path id="DejaVuSans-49" d="M 628 4666 
L 1259 4666 
L 1259 0 
L 628 0 
L 628 4666 
z
" transform="scale(0.015625)"/>
      <path id="DejaVuSans-6d" d="M 3328 2828 
Q 3544 3216 3844 3400 
Q 4144 3584 4550 3584 
Q 5097 3584 5394 3201 
Q 5691 2819 5691 2113 
L 5691 0 
L 5113 0 
L 5113 2094 
Q 5113 2597 4934 2840 
Q 4756 3084 4391 3084 
Q 3944 3084 3684 2787 
Q 3425 2491 3425 1978 
L 3425 0 
L 2847 0 
L 2847 2094 
Q 2847 2600 2669 2842 
Q 2491 3084 2119 3084 
Q 1678 3084 1418 2786 
Q 1159 2488 1159 1978 
L 1159 0 
L 581 0 
L 581 3500 
L 1159 3500 
L 1159 2956 
Q 1356 3278 1631 3431 
Q 1906 3584 2284 3584 
Q 2666 3584 2933 3390 
Q 3200 3197 3328 2828 
z
" transform="scale(0.015625)"/>
      <path id="DejaVuSans-70" d="M 1159 525 
L 1159 -1331 
L 581 -1331 
L 581 3500 
L 1159 3500 
L 1159 2969 
Q 1341 3281 1617 3432 
Q 1894 3584 2278 3584 
Q 2916 3584 3314 3078 
Q 3713 2572 3713 1747 
Q 3713 922 3314 415 
Q 2916 -91 2278 -91 
Q 1894 -91 1617 61 
Q 1341 213 1159 525 
z
M 3116 1747 
Q 3116 2381 2855 2742 
Q 2594 3103 2138 3103 
Q 1681 3103 1420 2742 
Q 1159 2381 1159 1747 
Q 1159 1113 1420 752 
Q 1681 391 2138 391 
Q 2594 391 2855 752 
Q 3116 1113 3116 1747 
z
" transform="scale(0.015625)"/>
      <path id="DejaVuSans-75" d="M 544 1381 
L 544 3500 
L 1119 3500 
L 1119 1403 
Q 1119 906 1312 657 
Q 1506 409 1894 409 
Q 2359 409 2629 706 
Q 2900 1003 2900 1516 
L 2900 3500 
L 3475 3500 
L 3475 0 
L 2900 0 
L 2900 538 
Q 2691 219 2414 64 
Q 2138 -91 1772 -91 
Q 1169 -91 856 284 
Q 544 659 544 1381 
z
M 1991 3584 
L 1991 3584 
z
" transform="scale(0.015625)"/>
      <path id="DejaVuSans-74" d="M 1172 4494 
L 1172 3500 
L 2356 3500 
L 2356 3053 
L 1172 3053 
L 1172 1153 
Q 1172 725 1289 603 
Q 1406 481 1766 481 
L 2356 481 
L 2356 0 
L 1766 0 
Q 1100 0 847 248 
Q 594 497 594 1153 
L 594 3053 
L 172 3053 
L 172 3500 
L 594 3500 
L 594 4494 
L 1172 4494 
z
" transform="scale(0.015625)"/>
      <path id="DejaVuSans-65" d="M 3597 1894 
L 3597 1613 
L 953 1613 
Q 991 1019 1311 708 
Q 1631 397 2203 397 
Q 2534 397 2845 478 
Q 3156 559 3463 722 
L 3463 178 
Q 3153 47 2828 -22 
Q 2503 -91 2169 -91 
Q 1331 -91 842 396 
Q 353 884 353 1716 
Q 353 2575 817 3079 
Q 1281 3584 2069 3584 
Q 2775 3584 3186 3129 
Q 3597 2675 3597 1894 
z
M 3022 2063 
Q 3016 2534 2758 2815 
Q 2500 3097 2075 3097 
Q 1594 3097 1305 2825 
Q 1016 2553 972 2059 
L 3022 2063 
z
" transform="scale(0.015625)"/>
      <path id="DejaVuSans-72" d="M 2631 2963 
Q 2534 3019 2420 3045 
Q 2306 3072 2169 3072 
Q 1681 3072 1420 2755 
Q 1159 2438 1159 1844 
L 1159 0 
L 581 0 
L 581 3500 
L 1159 3500 
L 1159 2956 
Q 1341 3275 1631 3429 
Q 1922 3584 2338 3584 
Q 2397 3584 2469 3576 
Q 2541 3569 2628 3553 
L 2631 2963 
z
" transform="scale(0.015625)"/>
     </defs>
     <use xlink:href="#DejaVuSans-49"/>
     <use xlink:href="#DejaVuSans-6d" transform="translate(29.492188 0)"/>
     <use xlink:href="#DejaVuSans-70" transform="translate(126.904297 0)"/>
     <use xlink:href="#DejaVuSans-75" transform="translate(190.380859 0)"/>
     <use xlink:href="#DejaVuSans-74" transform="translate(253.759766 0)"/>
     <use xlink:href="#DejaVuSans-65" transform="translate(292.96875 0)"/>
     <use xlink:href="#DejaVuSans-72" transform="translate(354.492188 0)"/>
    </g>
   </g>
   <g id="text_2">
    <!-- Scaler -->
    <g transform="translate(273.283406 89.399375) scale(0.1 -0.1)">
     <defs>
      <path id="DejaVuSans-53" d="M 3425 4513 
L 3425 3897 
Q 3066 4069 2747 4153 
Q 2428 4238 2131 4238 
Q 1616 4238 1336 4038 
Q 1056 3838 1056 3469 
Q 1056 3159 1242 3001 
Q 1428 2844 1947 2747 
L 2328 2669 
Q 3034 2534 3370 2195 
Q 3706 1856 3706 1288 
Q 3706 609 3251 259 
Q 2797 -91 1919 -91 
Q 1588 -91 1214 -16 
Q 841 59 441 206 
L 441 856 
Q 825 641 1194 531 
Q 1563 422 1919 422 
Q 2459 422 2753 634 
Q 3047 847 3047 1241 
Q 3047 1584 2836 1778 
Q 2625 1972 2144 2069 
L 1759 2144 
Q 1053 2284 737 2584 
Q 422 2884 422 3419 
Q 422 4038 858 4394 
Q 1294 4750 2059 4750 
Q 2388 4750 2728 4690 
Q 3069 4631 3425 4513 
z
" transform="scale(0.015625)"/>
      <path id="DejaVuSans-63" d="M 3122 3366 
L 3122 2828 
Q 2878 2963 2633 3030 
Q 2388 3097 2138 3097 
Q 1578 3097 1268 2742 
Q 959 2388 959 1747 
Q 959 1106 1268 751 
Q 1578 397 2138 397 
Q 2388 397 2633 464 
Q 2878 531 3122 666 
L 3122 134 
Q 2881 22 2623 -34 
Q 2366 -91 2075 -91 
Q 1284 -91 818 406 
Q 353 903 353 1747 
Q 353 2603 823 3093 
Q 1294 3584 2113 3584 
Q 2378 3584 2631 3529 
Q 2884 3475 3122 3366 
z
" transform="scale(0.015625)"/>
      <path id="DejaVuSans-61" d="M 2194 1759 
Q 1497 1759 1228 1600 
Q 959 1441 959 1056 
Q 959 750 1161 570 
Q 1363 391 1709 391 
Q 2188 391 2477 730 
Q 2766 1069 2766 1631 
L 2766 1759 
L 2194 1759 
z
M 3341 1997 
L 3341 0 
L 2766 0 
L 2766 531 
Q 2569 213 2275 61 
Q 1981 -91 1556 -91 
Q 1019 -91 701 211 
Q 384 513 384 1019 
Q 384 1609 779 1909 
Q 1175 2209 1959 2209 
L 2766 2209 
L 2766 2266 
Q 2766 2663 2505 2880 
Q 2244 3097 1772 3097 
Q 1472 3097 1187 3025 
Q 903 2953 641 2809 
L 641 3341 
Q 956 3463 1253 3523 
Q 1550 3584 1831 3584 
Q 2591 3584 2966 3190 
Q 3341 2797 3341 1997 
z
" transform="scale(0.015625)"/>
      <path id="DejaVuSans-6c" d="M 603 4863 
L 1178 4863 
L 1178 0 
L 603 0 
L 603 4863 
z
" transform="scale(0.015625)"/>
     </defs>
     <use xlink:href="#DejaVuSans-53"/>
     <use xlink:href="#DejaVuSans-63" transform="translate(63.476562 0)"/>
     <use xlink:href="#DejaVuSans-61" transform="translate(118.457031 0)"/>
     <use xlink:href="#DejaVuSans-6c" transform="translate(179.736328 0)"/>
     <use xlink:href="#DejaVuSans-65" transform="translate(207.519531 0)"/>
     <use xlink:href="#DejaVuSans-72" transform="translate(269.042969 0)"/>
    </g>
   </g>
   <g id="text_3">
    <!-- PCA -->
    <g transform="translate(430.497438 89.399375) scale(0.1 -0.1)">
     <defs>
      <path id="DejaVuSans-50" d="M 1259 4147 
L 1259 2394 
L 2053 2394 
Q 2494 2394 2734 2622 
Q 2975 2850 2975 3272 
Q 2975 3691 2734 3919 
Q 2494 4147 2053 4147 
L 1259 4147 
z
M 628 4666 
L 2053 4666 
Q 2838 4666 3239 4311 
Q 3641 3956 3641 3272 
Q 3641 2581 3239 2228 
Q 2838 1875 2053 1875 
L 1259 1875 
L 1259 0 
L 628 0 
L 628 4666 
z
" transform="scale(0.015625)"/>
      <path id="DejaVuSans-43" d="M 4122 4306 
L 4122 3641 
Q 3803 3938 3442 4084 
Q 3081 4231 2675 4231 
Q 1875 4231 1450 3742 
Q 1025 3253 1025 2328 
Q 1025 1406 1450 917 
Q 1875 428 2675 428 
Q 3081 428 3442 575 
Q 3803 722 4122 1019 
L 4122 359 
Q 3791 134 3420 21 
Q 3050 -91 2638 -91 
Q 1578 -91 968 557 
Q 359 1206 359 2328 
Q 359 3453 968 4101 
Q 1578 4750 2638 4750 
Q 3056 4750 3426 4639 
Q 3797 4528 4122 4306 
z
" transform="scale(0.015625)"/>
      <path id="DejaVuSans-41" d="M 2188 4044 
L 1331 1722 
L 3047 1722 
L 2188 4044 
z
M 1831 4666 
L 2547 4666 
L 4325 0 
L 3669 0 
L 3244 1197 
L 1141 1197 
L 716 0 
L 50 0 
L 1831 4666 
z
" transform="scale(0.015625)"/>
     </defs>
     <use xlink:href="#DejaVuSans-50"/>
     <use xlink:href="#DejaVuSans-43" transform="translate(60.302734 0)"/>
     <use xlink:href="#DejaVuSans-41" transform="translate(130.126953 0)"/>
    </g>
   </g>
   <g id="text_4">
    <!-- GridSearchCV(Est) -->
    <g transform="translate(545.84975 89.399375) scale(0.1 -0.1)">
     <defs>
      <path id="DejaVuSans-47" d="M 3809 666 
L 3809 1919 
L 2778 1919 
L 2778 2438 
L 4434 2438 
L 4434 434 
Q 4069 175 3628 42 
Q 3188 -91 2688 -91 
Q 1594 -91 976 548 
Q 359 1188 359 2328 
Q 359 3472 976 4111 
Q 1594 4750 2688 4750 
Q 3144 4750 3555 4637 
Q 3966 4525 4313 4306 
L 4313 3634 
Q 3963 3931 3569 4081 
Q 3175 4231 2741 4231 
Q 1884 4231 1454 3753 
Q 1025 3275 1025 2328 
Q 1025 1384 1454 906 
Q 1884 428 2741 428 
Q 3075 428 3337 486 
Q 3600 544 3809 666 
z
" transform="scale(0.015625)"/>
      <path id="DejaVuSans-69" d="M 603 3500 
L 1178 3500 
L 1178 0 
L 603 0 
L 603 3500 
z
M 603 4863 
L 1178 4863 
L 1178 4134 
L 603 4134 
L 603 4863 
z
" transform="scale(0.015625)"/>
      <path id="DejaVuSans-64" d="M 2906 2969 
L 2906 4863 
L 3481 4863 
L 3481 0 
L 2906 0 
L 2906 525 
Q 2725 213 2448 61 
Q 2172 -91 1784 -91 
Q 1150 -91 751 415 
Q 353 922 353 1747 
Q 353 2572 751 3078 
Q 1150 3584 1784 3584 
Q 2172 3584 2448 3432 
Q 2725 3281 2906 2969 
z
M 947 1747 
Q 947 1113 1208 752 
Q 1469 391 1925 391 
Q 2381 391 2643 752 
Q 2906 1113 2906 1747 
Q 2906 2381 2643 2742 
Q 2381 3103 1925 3103 
Q 1469 3103 1208 2742 
Q 947 2381 947 1747 
z
" transform="scale(0.015625)"/>
      <path id="DejaVuSans-68" d="M 3513 2113 
L 3513 0 
L 2938 0 
L 2938 2094 
Q 2938 2591 2744 2837 
Q 2550 3084 2163 3084 
Q 1697 3084 1428 2787 
Q 1159 2491 1159 1978 
L 1159 0 
L 581 0 
L 581 4863 
L 1159 4863 
L 1159 2956 
Q 1366 3272 1645 3428 
Q 1925 3584 2291 3584 
Q 2894 3584 3203 3211 
Q 3513 2838 3513 2113 
z
" transform="scale(0.015625)"/>
      <path id="DejaVuSans-56" d="M 1831 0 
L 50 4666 
L 709 4666 
L 2188 738 
L 3669 4666 
L 4325 4666 
L 2547 0 
L 1831 0 
z
" transform="scale(0.015625)"/>
      <path id="DejaVuSans-28" d="M 1984 4856 
Q 1566 4138 1362 3434 
Q 1159 2731 1159 2009 
Q 1159 1288 1364 580 
Q 1569 -128 1984 -844 
L 1484 -844 
Q 1016 -109 783 600 
Q 550 1309 550 2009 
Q 550 2706 781 3412 
Q 1013 4119 1484 4856 
L 1984 4856 
z
" transform="scale(0.015625)"/>
      <path id="DejaVuSans-45" d="M 628 4666 
L 3578 4666 
L 3578 4134 
L 1259 4134 
L 1259 2753 
L 3481 2753 
L 3481 2222 
L 1259 2222 
L 1259 531 
L 3634 531 
L 3634 0 
L 628 0 
L 628 4666 
z
" transform="scale(0.015625)"/>
      <path id="DejaVuSans-73" d="M 2834 3397 
L 2834 2853 
Q 2591 2978 2328 3040 
Q 2066 3103 1784 3103 
Q 1356 3103 1142 2972 
Q 928 2841 928 2578 
Q 928 2378 1081 2264 
Q 1234 2150 1697 2047 
L 1894 2003 
Q 2506 1872 2764 1633 
Q 3022 1394 3022 966 
Q 3022 478 2636 193 
Q 2250 -91 1575 -91 
Q 1294 -91 989 -36 
Q 684 19 347 128 
L 347 722 
Q 666 556 975 473 
Q 1284 391 1588 391 
Q 1994 391 2212 530 
Q 2431 669 2431 922 
Q 2431 1156 2273 1281 
Q 2116 1406 1581 1522 
L 1381 1569 
Q 847 1681 609 1914 
Q 372 2147 372 2553 
Q 372 3047 722 3315 
Q 1072 3584 1716 3584 
Q 2034 3584 2315 3537 
Q 2597 3491 2834 3397 
z
" transform="scale(0.015625)"/>
      <path id="DejaVuSans-29" d="M 513 4856 
L 1013 4856 
Q 1481 4119 1714 3412 
Q 1947 2706 1947 2009 
Q 1947 1309 1714 600 
Q 1481 -109 1013 -844 
L 513 -844 
Q 928 -128 1133 580 
Q 1338 1288 1338 2009 
Q 1338 2731 1133 3434 
Q 928 4138 513 4856 
z
" transform="scale(0.015625)"/>
     </defs>
     <use xlink:href="#DejaVuSans-47"/>
     <use xlink:href="#DejaVuSans-72" transform="translate(77.490234 0)"/>
     <use xlink:href="#DejaVuSans-69" transform="translate(118.603516 0)"/>
     <use xlink:href="#DejaVuSans-64" transform="translate(146.386719 0)"/>
     <use xlink:href="#DejaVuSans-53" transform="translate(209.863281 0)"/>
     <use xlink:href="#DejaVuSans-65" transform="translate(273.339844 0)"/>
     <use xlink:href="#DejaVuSans-61" transform="translate(334.863281 0)"/>
     <use xlink:href="#DejaVuSans-72" transform="translate(396.142578 0)"/>
     <use xlink:href="#DejaVuSans-63" transform="translate(435.005859 0)"/>
     <use xlink:href="#DejaVuSans-68" transform="translate(489.986328 0)"/>
     <use xlink:href="#DejaVuSans-43" transform="translate(553.365234 0)"/>
     <use xlink:href="#DejaVuSans-56" transform="translate(623.189453 0)"/>
     <use xlink:href="#DejaVuSans-28" transform="translate(691.597656 0)"/>
     <use xlink:href="#DejaVuSans-45" transform="translate(730.611328 0)"/>
     <use xlink:href="#DejaVuSans-73" transform="translate(793.794922 0)"/>
     <use xlink:href="#DejaVuSans-74" transform="translate(845.894531 0)"/>
     <use xlink:href="#DejaVuSans-29" transform="translate(885.103516 0)"/>
    </g>
   </g>
   <g id="text_5">
    <!-- VotingRegressor -->
    <g transform="translate(703.059875 89.399375) scale(0.1 -0.1)">
     <defs>
      <path id="DejaVuSans-6f" d="M 1959 3097 
Q 1497 3097 1228 2736 
Q 959 2375 959 1747 
Q 959 1119 1226 758 
Q 1494 397 1959 397 
Q 2419 397 2687 759 
Q 2956 1122 2956 1747 
Q 2956 2369 2687 2733 
Q 2419 3097 1959 3097 
z
M 1959 3584 
Q 2709 3584 3137 3096 
Q 3566 2609 3566 1747 
Q 3566 888 3137 398 
Q 2709 -91 1959 -91 
Q 1206 -91 779 398 
Q 353 888 353 1747 
Q 353 2609 779 3096 
Q 1206 3584 1959 3584 
z
" transform="scale(0.015625)"/>
      <path id="DejaVuSans-6e" d="M 3513 2113 
L 3513 0 
L 2938 0 
L 2938 2094 
Q 2938 2591 2744 2837 
Q 2550 3084 2163 3084 
Q 1697 3084 1428 2787 
Q 1159 2491 1159 1978 
L 1159 0 
L 581 0 
L 581 3500 
L 1159 3500 
L 1159 2956 
Q 1366 3272 1645 3428 
Q 1925 3584 2291 3584 
Q 2894 3584 3203 3211 
Q 3513 2838 3513 2113 
z
" transform="scale(0.015625)"/>
      <path id="DejaVuSans-67" d="M 2906 1791 
Q 2906 2416 2648 2759 
Q 2391 3103 1925 3103 
Q 1463 3103 1205 2759 
Q 947 2416 947 1791 
Q 947 1169 1205 825 
Q 1463 481 1925 481 
Q 2391 481 2648 825 
Q 2906 1169 2906 1791 
z
M 3481 434 
Q 3481 -459 3084 -895 
Q 2688 -1331 1869 -1331 
Q 1566 -1331 1297 -1286 
Q 1028 -1241 775 -1147 
L 775 -588 
Q 1028 -725 1275 -790 
Q 1522 -856 1778 -856 
Q 2344 -856 2625 -561 
Q 2906 -266 2906 331 
L 2906 616 
Q 2728 306 2450 153 
Q 2172 0 1784 0 
Q 1141 0 747 490 
Q 353 981 353 1791 
Q 353 2603 747 3093 
Q 1141 3584 1784 3584 
Q 2172 3584 2450 3431 
Q 2728 3278 2906 2969 
L 2906 3500 
L 3481 3500 
L 3481 434 
z
" transform="scale(0.015625)"/>
      <path id="DejaVuSans-52" d="M 2841 2188 
Q 3044 2119 3236 1894 
Q 3428 1669 3622 1275 
L 4263 0 
L 3584 0 
L 2988 1197 
Q 2756 1666 2539 1819 
Q 2322 1972 1947 1972 
L 1259 1972 
L 1259 0 
L 628 0 
L 628 4666 
L 2053 4666 
Q 2853 4666 3247 4331 
Q 3641 3997 3641 3322 
Q 3641 2881 3436 2590 
Q 3231 2300 2841 2188 
z
M 1259 4147 
L 1259 2491 
L 2053 2491 
Q 2509 2491 2742 2702 
Q 2975 2913 2975 3322 
Q 2975 3731 2742 3939 
Q 2509 4147 2053 4147 
L 1259 4147 
z
" transform="scale(0.015625)"/>
     </defs>
     <use xlink:href="#DejaVuSans-56"/>
     <use xlink:href="#DejaVuSans-6f" transform="translate(60.658203 0)"/>
     <use xlink:href="#DejaVuSans-74" transform="translate(121.839844 0)"/>
     <use xlink:href="#DejaVuSans-69" transform="translate(161.048828 0)"/>
     <use xlink:href="#DejaVuSans-6e" transform="translate(188.832031 0)"/>
     <use xlink:href="#DejaVuSans-67" transform="translate(252.210938 0)"/>
     <use xlink:href="#DejaVuSans-52" transform="translate(315.6875 0)"/>
     <use xlink:href="#DejaVuSans-65" transform="translate(380.669922 0)"/>
     <use xlink:href="#DejaVuSans-67" transform="translate(442.193359 0)"/>
     <use xlink:href="#DejaVuSans-72" transform="translate(505.669922 0)"/>
     <use xlink:href="#DejaVuSans-65" transform="translate(544.533203 0)"/>
     <use xlink:href="#DejaVuSans-73" transform="translate(606.056641 0)"/>
     <use xlink:href="#DejaVuSans-73" transform="translate(658.15625 0)"/>
     <use xlink:href="#DejaVuSans-6f" transform="translate(710.255859 0)"/>
     <use xlink:href="#DejaVuSans-72" transform="translate(771.4375 0)"/>
    </g>
   </g>
   <g id="text_6">
    <!-- Full -->
    <g transform="translate(36.072 55.152) scale(0.11 -0.11)">
     <defs>
      <path id="DejaVuSans-Bold-46" d="M 588 4666 
L 3834 4666 
L 3834 3756 
L 1791 3756 
L 1791 2888 
L 3713 2888 
L 3713 1978 
L 1791 1978 
L 1791 0 
L 588 0 
L 588 4666 
z
" transform="scale(0.015625)"/>
      <path id="DejaVuSans-Bold-75" d="M 500 1363 
L 500 3500 
L 1625 3500 
L 1625 3150 
Q 1625 2866 1622 2436 
Q 1619 2006 1619 1863 
Q 1619 1441 1641 1255 
Q 1663 1069 1716 984 
Q 1784 875 1895 815 
Q 2006 756 2150 756 
Q 2500 756 2700 1025 
Q 2900 1294 2900 1772 
L 2900 3500 
L 4019 3500 
L 4019 0 
L 2900 0 
L 2900 506 
Q 2647 200 2364 54 
Q 2081 -91 1741 -91 
Q 1134 -91 817 281 
Q 500 653 500 1363 
z
" transform="scale(0.015625)"/>
      <path id="DejaVuSans-Bold-6c" d="M 538 4863 
L 1656 4863 
L 1656 0 
L 538 0 
L 538 4863 
z
" transform="scale(0.015625)"/>
     </defs>
     <use xlink:href="#DejaVuSans-Bold-46"/>
     <use xlink:href="#DejaVuSans-Bold-75" transform="translate(63.310547 0)"/>
     <use xlink:href="#DejaVuSans-Bold-6c" transform="translate(134.501953 0)"/>
     <use xlink:href="#DejaVuSans-Bold-6c" transform="translate(168.779297 0)"/>
    </g>
   </g>
   <g id="text_7">
    <!-- Imputer -->
    <g transform="translate(117.379531 187.799375) scale(0.1 -0.1)">
     <use xlink:href="#DejaVuSans-49"/>
     <use xlink:href="#DejaVuSans-6d" transform="translate(29.492188 0)"/>
     <use xlink:href="#DejaVuSans-70" transform="translate(126.904297 0)"/>
     <use xlink:href="#DejaVuSans-75" transform="translate(190.380859 0)"/>
     <use xlink:href="#DejaVuSans-74" transform="translate(253.759766 0)"/>
     <use xlink:href="#DejaVuSans-65" transform="translate(292.96875 0)"/>
     <use xlink:href="#DejaVuSans-72" transform="translate(354.492188 0)"/>
    </g>
   </g>
   <g id="text_8">
    <!-- Identity -->
    <g transform="translate(269.628719 182.200469) scale(0.1 -0.1)">
     <defs>
      <path id="DejaVuSans-79" d="M 2059 -325 
Q 1816 -950 1584 -1140 
Q 1353 -1331 966 -1331 
L 506 -1331 
L 506 -850 
L 844 -850 
Q 1081 -850 1212 -737 
Q 1344 -625 1503 -206 
L 1606 56 
L 191 3500 
L 800 3500 
L 1894 763 
L 2988 3500 
L 3597 3500 
L 2059 -325 
z
" transform="scale(0.015625)"/>
     </defs>
     <use xlink:href="#DejaVuSans-49"/>
     <use xlink:href="#DejaVuSans-64" transform="translate(29.492188 0)"/>
     <use xlink:href="#DejaVuSans-65" transform="translate(92.96875 0)"/>
     <use xlink:href="#DejaVuSans-6e" transform="translate(154.492188 0)"/>
     <use xlink:href="#DejaVuSans-74" transform="translate(217.871094 0)"/>
     <use xlink:href="#DejaVuSans-69" transform="translate(257.080078 0)"/>
     <use xlink:href="#DejaVuSans-74" transform="translate(284.863281 0)"/>
     <use xlink:href="#DejaVuSans-79" transform="translate(324.072266 0)"/>
    </g>
    <!-- (no scaler) -->
    <g transform="translate(262.134188 193.398281) scale(0.1 -0.1)">
     <defs>
      <path id="DejaVuSans-20" transform="scale(0.015625)"/>
     </defs>
     <use xlink:href="#DejaVuSans-28"/>
     <use xlink:href="#DejaVuSans-6e" transform="translate(39.013672 0)"/>
     <use xlink:href="#DejaVuSans-6f" transform="translate(102.392578 0)"/>
     <use xlink:href="#DejaVuSans-20" transform="translate(163.574219 0)"/>
     <use xlink:href="#DejaVuSans-73" transform="translate(195.361328 0)"/>
     <use xlink:href="#DejaVuSans-63" transform="translate(247.460938 0)"/>
     <use xlink:href="#DejaVuSans-61" transform="translate(302.441406 0)"/>
     <use xlink:href="#DejaVuSans-6c" transform="translate(363.720703 0)"/>
     <use xlink:href="#DejaVuSans-65" transform="translate(391.503906 0)"/>
     <use xlink:href="#DejaVuSans-72" transform="translate(453.027344 0)"/>
     <use xlink:href="#DejaVuSans-29" transform="translate(494.140625 0)"/>
    </g>
   </g>
   <g id="text_9">
    <!-- PCA -->
    <g transform="translate(430.497438 187.799375) scale(0.1 -0.1)">
     <use xlink:href="#DejaVuSans-50"/>
     <use xlink:href="#DejaVuSans-43" transform="translate(60.302734 0)"/>
     <use xlink:href="#DejaVuSans-41" transform="translate(130.126953 0)"/>
    </g>
   </g>
   <g id="text_10">
    <!-- GridSearchCV(Est) -->
    <g transform="translate(545.84975 187.799375) scale(0.1 -0.1)">
     <use xlink:href="#DejaVuSans-47"/>
     <use xlink:href="#DejaVuSans-72" transform="translate(77.490234 0)"/>
     <use xlink:href="#DejaVuSans-69" transform="translate(118.603516 0)"/>
     <use xlink:href="#DejaVuSans-64" transform="translate(146.386719 0)"/>
     <use xlink:href="#DejaVuSans-53" transform="translate(209.863281 0)"/>
     <use xlink:href="#DejaVuSans-65" transform="translate(273.339844 0)"/>
     <use xlink:href="#DejaVuSans-61" transform="translate(334.863281 0)"/>
     <use xlink:href="#DejaVuSans-72" transform="translate(396.142578 0)"/>
     <use xlink:href="#DejaVuSans-63" transform="translate(435.005859 0)"/>
     <use xlink:href="#DejaVuSans-68" transform="translate(489.986328 0)"/>
     <use xlink:href="#DejaVuSans-43" transform="translate(553.365234 0)"/>
     <use xlink:href="#DejaVuSans-56" transform="translate(623.189453 0)"/>
     <use xlink:href="#DejaVuSans-28" transform="translate(691.597656 0)"/>
     <use xlink:href="#DejaVuSans-45" transform="translate(730.611328 0)"/>
     <use xlink:href="#DejaVuSans-73" transform="translate(793.794922 0)"/>
     <use xlink:href="#DejaVuSans-74" transform="translate(845.894531 0)"/>
     <use xlink:href="#DejaVuSans-29" transform="translate(885.103516 0)"/>
    </g>
   </g>
   <g id="text_11">
    <!-- VotingRegressor -->
    <g transform="translate(703.059875 187.799375) scale(0.1 -0.1)">
     <use xlink:href="#DejaVuSans-56"/>
     <use xlink:href="#DejaVuSans-6f" transform="translate(60.658203 0)"/>
     <use xlink:href="#DejaVuSans-74" transform="translate(121.839844 0)"/>
     <use xlink:href="#DejaVuSans-69" transform="translate(161.048828 0)"/>
     <use xlink:href="#DejaVuSans-6e" transform="translate(188.832031 0)"/>
     <use xlink:href="#DejaVuSans-67" transform="translate(252.210938 0)"/>
     <use xlink:href="#DejaVuSans-52" transform="translate(315.6875 0)"/>
     <use xlink:href="#DejaVuSans-65" transform="translate(380.669922 0)"/>
     <use xlink:href="#DejaVuSans-67" transform="translate(442.193359 0)"/>
     <use xlink:href="#DejaVuSans-72" transform="translate(505.669922 0)"/>
     <use xlink:href="#DejaVuSans-65" transform="translate(544.533203 0)"/>
     <use xlink:href="#DejaVuSans-73" transform="translate(606.056641 0)"/>
     <use xlink:href="#DejaVuSans-73" transform="translate(658.15625 0)"/>
     <use xlink:href="#DejaVuSans-6f" transform="translate(710.255859 0)"/>
     <use xlink:href="#DejaVuSans-72" transform="translate(771.4375 0)"/>
    </g>
   </g>
   <g id="text_12">
    <!-- No scaling -->
    <g transform="translate(36.072 165.36) scale(0.11 -0.11)">
     <defs>
      <path id="DejaVuSans-Bold-4e" d="M 588 4666 
L 1931 4666 
L 3628 1466 
L 3628 4666 
L 4769 4666 
L 4769 0 
L 3425 0 
L 1728 3200 
L 1728 0 
L 588 0 
L 588 4666 
z
" transform="scale(0.015625)"/>
      <path id="DejaVuSans-Bold-6f" d="M 2203 2784 
Q 1831 2784 1636 2517 
Q 1441 2250 1441 1747 
Q 1441 1244 1636 976 
Q 1831 709 2203 709 
Q 2569 709 2762 976 
Q 2956 1244 2956 1747 
Q 2956 2250 2762 2517 
Q 2569 2784 2203 2784 
z
M 2203 3584 
Q 3106 3584 3614 3096 
Q 4122 2609 4122 1747 
Q 4122 884 3614 396 
Q 3106 -91 2203 -91 
Q 1297 -91 786 396 
Q 275 884 275 1747 
Q 275 2609 786 3096 
Q 1297 3584 2203 3584 
z
" transform="scale(0.015625)"/>
      <path id="DejaVuSans-Bold-20" transform="scale(0.015625)"/>
      <path id="DejaVuSans-Bold-73" d="M 3272 3391 
L 3272 2541 
Q 2913 2691 2578 2766 
Q 2244 2841 1947 2841 
Q 1628 2841 1473 2761 
Q 1319 2681 1319 2516 
Q 1319 2381 1436 2309 
Q 1553 2238 1856 2203 
L 2053 2175 
Q 2913 2066 3209 1816 
Q 3506 1566 3506 1031 
Q 3506 472 3093 190 
Q 2681 -91 1863 -91 
Q 1516 -91 1145 -36 
Q 775 19 384 128 
L 384 978 
Q 719 816 1070 734 
Q 1422 653 1784 653 
Q 2113 653 2278 743 
Q 2444 834 2444 1013 
Q 2444 1163 2330 1236 
Q 2216 1309 1875 1350 
L 1678 1375 
Q 931 1469 631 1722 
Q 331 1975 331 2491 
Q 331 3047 712 3315 
Q 1094 3584 1881 3584 
Q 2191 3584 2531 3537 
Q 2872 3491 3272 3391 
z
" transform="scale(0.015625)"/>
      <path id="DejaVuSans-Bold-63" d="M 3366 3391 
L 3366 2478 
Q 3138 2634 2908 2709 
Q 2678 2784 2431 2784 
Q 1963 2784 1702 2511 
Q 1441 2238 1441 1747 
Q 1441 1256 1702 982 
Q 1963 709 2431 709 
Q 2694 709 2930 787 
Q 3166 866 3366 1019 
L 3366 103 
Q 3103 6 2833 -42 
Q 2563 -91 2291 -91 
Q 1344 -91 809 395 
Q 275 881 275 1747 
Q 275 2613 809 3098 
Q 1344 3584 2291 3584 
Q 2566 3584 2833 3536 
Q 3100 3488 3366 3391 
z
" transform="scale(0.015625)"/>
      <path id="DejaVuSans-Bold-61" d="M 2106 1575 
Q 1756 1575 1579 1456 
Q 1403 1338 1403 1106 
Q 1403 894 1545 773 
Q 1688 653 1941 653 
Q 2256 653 2472 879 
Q 2688 1106 2688 1447 
L 2688 1575 
L 2106 1575 
z
M 3816 1997 
L 3816 0 
L 2688 0 
L 2688 519 
Q 2463 200 2181 54 
Q 1900 -91 1497 -91 
Q 953 -91 614 226 
Q 275 544 275 1050 
Q 275 1666 698 1953 
Q 1122 2241 2028 2241 
L 2688 2241 
L 2688 2328 
Q 2688 2594 2478 2717 
Q 2269 2841 1825 2841 
Q 1466 2841 1156 2769 
Q 847 2697 581 2553 
L 581 3406 
Q 941 3494 1303 3539 
Q 1666 3584 2028 3584 
Q 2975 3584 3395 3211 
Q 3816 2838 3816 1997 
z
" transform="scale(0.015625)"/>
      <path id="DejaVuSans-Bold-69" d="M 538 3500 
L 1656 3500 
L 1656 0 
L 538 0 
L 538 3500 
z
M 538 4863 
L 1656 4863 
L 1656 3950 
L 538 3950 
L 538 4863 
z
" transform="scale(0.015625)"/>
      <path id="DejaVuSans-Bold-6e" d="M 4056 2131 
L 4056 0 
L 2931 0 
L 2931 347 
L 2931 1631 
Q 2931 2084 2911 2256 
Q 2891 2428 2841 2509 
Q 2775 2619 2662 2680 
Q 2550 2741 2406 2741 
Q 2056 2741 1856 2470 
Q 1656 2200 1656 1722 
L 1656 0 
L 538 0 
L 538 3500 
L 1656 3500 
L 1656 2988 
Q 1909 3294 2193 3439 
Q 2478 3584 2822 3584 
Q 3428 3584 3742 3212 
Q 4056 2841 4056 2131 
z
" transform="scale(0.015625)"/>
      <path id="DejaVuSans-Bold-67" d="M 2919 594 
Q 2688 288 2409 144 
Q 2131 0 1766 0 
Q 1125 0 706 504 
Q 288 1009 288 1791 
Q 288 2575 706 3076 
Q 1125 3578 1766 3578 
Q 2131 3578 2409 3434 
Q 2688 3291 2919 2981 
L 2919 3500 
L 4044 3500 
L 4044 353 
Q 4044 -491 3511 -936 
Q 2978 -1381 1966 -1381 
Q 1638 -1381 1331 -1331 
Q 1025 -1281 716 -1178 
L 716 -306 
Q 1009 -475 1290 -558 
Q 1572 -641 1856 -641 
Q 2406 -641 2662 -400 
Q 2919 -159 2919 353 
L 2919 594 
z
M 2181 2772 
Q 1834 2772 1640 2515 
Q 1447 2259 1447 1791 
Q 1447 1309 1634 1061 
Q 1822 813 2181 813 
Q 2531 813 2725 1069 
Q 2919 1325 2919 1791 
Q 2919 2259 2725 2515 
Q 2531 2772 2181 2772 
z
" transform="scale(0.015625)"/>
     </defs>
     <use xlink:href="#DejaVuSans-Bold-4e"/>
     <use xlink:href="#DejaVuSans-Bold-6f" transform="translate(83.691406 0)"/>
     <use xlink:href="#DejaVuSans-Bold-20" transform="translate(152.392578 0)"/>
     <use xlink:href="#DejaVuSans-Bold-73" transform="translate(187.207031 0)"/>
     <use xlink:href="#DejaVuSans-Bold-63" transform="translate(246.728516 0)"/>
     <use xlink:href="#DejaVuSans-Bold-61" transform="translate(306.005859 0)"/>
     <use xlink:href="#DejaVuSans-Bold-6c" transform="translate(373.486328 0)"/>
     <use xlink:href="#DejaVuSans-Bold-69" transform="translate(407.763672 0)"/>
     <use xlink:href="#DejaVuSans-Bold-6e" transform="translate(442.041016 0)"/>
     <use xlink:href="#DejaVuSans-Bold-67" transform="translate(513.232422 0)"/>
    </g>
   </g>
   <g id="text_13">
    <!-- Imputer -->
    <g transform="translate(117.379531 286.199375) scale(0.1 -0.1)">
     <use xlink:href="#DejaVuSans-49"/>
     <use xlink:href="#DejaVuSans-6d" transform="translate(29.492188 0)"/>
     <use xlink:href="#DejaVuSans-70" transform="translate(126.904297 0)"/>
     <use xlink:href="#DejaVuSans-75" transform="translate(190.380859 0)"/>
     <use xlink:href="#DejaVuSans-74" transform="translate(253.759766 0)"/>
     <use xlink:href="#DejaVuSans-65" transform="translate(292.96875 0)"/>
     <use xlink:href="#DejaVuSans-72" transform="translate(354.492188 0)"/>
    </g>
   </g>
   <g id="text_14">
    <!-- Scaler -->
    <g transform="translate(273.283406 286.199375) scale(0.1 -0.1)">
     <use xlink:href="#DejaVuSans-53"/>
     <use xlink:href="#DejaVuSans-63" transform="translate(63.476562 0)"/>
     <use xlink:href="#DejaVuSans-61" transform="translate(118.457031 0)"/>
     <use xlink:href="#DejaVuSans-6c" transform="translate(179.736328 0)"/>
     <use xlink:href="#DejaVuSans-65" transform="translate(207.519531 0)"/>
     <use xlink:href="#DejaVuSans-72" transform="translate(269.042969 0)"/>
    </g>
   </g>
   <g id="text_15">
    <!-- PCA -->
    <g transform="translate(430.497438 286.199375) scale(0.1 -0.1)">
     <use xlink:href="#DejaVuSans-50"/>
     <use xlink:href="#DejaVuSans-43" transform="translate(60.302734 0)"/>
     <use xlink:href="#DejaVuSans-41" transform="translate(130.126953 0)"/>
    </g>
   </g>
   <g id="text_16">
    <!-- Est (no Grid) -->
    <g transform="translate(560.531 286.199375) scale(0.1 -0.1)">
     <use xlink:href="#DejaVuSans-45"/>
     <use xlink:href="#DejaVuSans-73" transform="translate(63.183594 0)"/>
     <use xlink:href="#DejaVuSans-74" transform="translate(115.283203 0)"/>
     <use xlink:href="#DejaVuSans-20" transform="translate(154.492188 0)"/>
     <use xlink:href="#DejaVuSans-28" transform="translate(186.279297 0)"/>
     <use xlink:href="#DejaVuSans-6e" transform="translate(225.292969 0)"/>
     <use xlink:href="#DejaVuSans-6f" transform="translate(288.671875 0)"/>
     <use xlink:href="#DejaVuSans-20" transform="translate(349.853516 0)"/>
     <use xlink:href="#DejaVuSans-47" transform="translate(381.640625 0)"/>
     <use xlink:href="#DejaVuSans-72" transform="translate(459.130859 0)"/>
     <use xlink:href="#DejaVuSans-69" transform="translate(500.244141 0)"/>
     <use xlink:href="#DejaVuSans-64" transform="translate(528.027344 0)"/>
     <use xlink:href="#DejaVuSans-29" transform="translate(591.503906 0)"/>
    </g>
   </g>
   <g id="text_17">
    <!-- VotingRegressor -->
    <g transform="translate(703.059875 286.199375) scale(0.1 -0.1)">
     <use xlink:href="#DejaVuSans-56"/>
     <use xlink:href="#DejaVuSans-6f" transform="translate(60.658203 0)"/>
     <use xlink:href="#DejaVuSans-74" transform="translate(121.839844 0)"/>
     <use xlink:href="#DejaVuSans-69" transform="translate(161.048828 0)"/>
     <use xlink:href="#DejaVuSans-6e" transform="translate(188.832031 0)"/>
     <use xlink:href="#DejaVuSans-67" transform="translate(252.210938 0)"/>
     <use xlink:href="#DejaVuSans-52" transform="translate(315.6875 0)"/>
     <use xlink:href="#DejaVuSans-65" transform="translate(380.669922 0)"/>
     <use xlink:href="#DejaVuSans-67" transform="translate(442.193359 0)"/>
     <use xlink:href="#DejaVuSans-72" transform="translate(505.669922 0)"/>
     <use xlink:href="#DejaVuSans-65" transform="translate(544.533203 0)"/>
     <use xlink:href="#DejaVuSans-73" transform="translate(606.056641 0)"/>
     <use xlink:href="#DejaVuSans-73" transform="translate(658.15625 0)"/>
     <use xlink:href="#DejaVuSans-6f" transform="translate(710.255859 0)"/>
     <use xlink:href="#DejaVuSans-72" transform="translate(771.4375 0)"/>
    </g>
   </g>
   <g id="text_18">
    <!-- No tuning -->
    <g transform="translate(36.072 263.76) scale(0.11 -0.11)">
     <defs>
      <path id="DejaVuSans-Bold-74" d="M 1759 4494 
L 1759 3500 
L 2913 3500 
L 2913 2700 
L 1759 2700 
L 1759 1216 
Q 1759 972 1856 886 
Q 1953 800 2241 800 
L 2816 800 
L 2816 0 
L 1856 0 
Q 1194 0 917 276 
Q 641 553 641 1216 
L 641 2700 
L 84 2700 
L 84 3500 
L 641 3500 
L 641 4494 
L 1759 4494 
z
" transform="scale(0.015625)"/>
     </defs>
     <use xlink:href="#DejaVuSans-Bold-4e"/>
     <use xlink:href="#DejaVuSans-Bold-6f" transform="translate(83.691406 0)"/>
     <use xlink:href="#DejaVuSans-Bold-20" transform="translate(152.392578 0)"/>
     <use xlink:href="#DejaVuSans-Bold-74" transform="translate(187.207031 0)"/>
     <use xlink:href="#DejaVuSans-Bold-75" transform="translate(235.009766 0)"/>
     <use xlink:href="#DejaVuSans-Bold-6e" transform="translate(306.201172 0)"/>
     <use xlink:href="#DejaVuSans-Bold-69" transform="translate(377.392578 0)"/>
     <use xlink:href="#DejaVuSans-Bold-6e" transform="translate(411.669922 0)"/>
     <use xlink:href="#DejaVuSans-Bold-67" transform="translate(482.861328 0)"/>
    </g>
   </g>
   <g id="text_19">
    <!-- Imputer -->
    <g transform="translate(117.379531 384.599375) scale(0.1 -0.1)">
     <use xlink:href="#DejaVuSans-49"/>
     <use xlink:href="#DejaVuSans-6d" transform="translate(29.492188 0)"/>
     <use xlink:href="#DejaVuSans-70" transform="translate(126.904297 0)"/>
     <use xlink:href="#DejaVuSans-75" transform="translate(190.380859 0)"/>
     <use xlink:href="#DejaVuSans-74" transform="translate(253.759766 0)"/>
     <use xlink:href="#DejaVuSans-65" transform="translate(292.96875 0)"/>
     <use xlink:href="#DejaVuSans-72" transform="translate(354.492188 0)"/>
    </g>
   </g>
   <g id="text_20">
    <!-- Scaler -->
    <g transform="translate(273.283406 384.599375) scale(0.1 -0.1)">
     <use xlink:href="#DejaVuSans-53"/>
     <use xlink:href="#DejaVuSans-63" transform="translate(63.476562 0)"/>
     <use xlink:href="#DejaVuSans-61" transform="translate(118.457031 0)"/>
     <use xlink:href="#DejaVuSans-6c" transform="translate(179.736328 0)"/>
     <use xlink:href="#DejaVuSans-65" transform="translate(207.519531 0)"/>
     <use xlink:href="#DejaVuSans-72" transform="translate(269.042969 0)"/>
    </g>
   </g>
   <g id="text_21">
    <!-- PCA -->
    <g transform="translate(430.497438 384.599375) scale(0.1 -0.1)">
     <use xlink:href="#DejaVuSans-50"/>
     <use xlink:href="#DejaVuSans-43" transform="translate(60.302734 0)"/>
     <use xlink:href="#DejaVuSans-41" transform="translate(130.126953 0)"/>
    </g>
   </g>
   <g id="text_22">
    <!-- GridSearchCV(Est) -->
    <g transform="translate(545.84975 384.599375) scale(0.1 -0.1)">
     <use xlink:href="#DejaVuSans-47"/>
     <use xlink:href="#DejaVuSans-72" transform="translate(77.490234 0)"/>
     <use xlink:href="#DejaVuSans-69" transform="translate(118.603516 0)"/>
     <use xlink:href="#DejaVuSans-64" transform="translate(146.386719 0)"/>
     <use xlink:href="#DejaVuSans-53" transform="translate(209.863281 0)"/>
     <use xlink:href="#DejaVuSans-65" transform="translate(273.339844 0)"/>
     <use xlink:href="#DejaVuSans-61" transform="translate(334.863281 0)"/>
     <use xlink:href="#DejaVuSans-72" transform="translate(396.142578 0)"/>
     <use xlink:href="#DejaVuSans-63" transform="translate(435.005859 0)"/>
     <use xlink:href="#DejaVuSans-68" transform="translate(489.986328 0)"/>
     <use xlink:href="#DejaVuSans-43" transform="translate(553.365234 0)"/>
     <use xlink:href="#DejaVuSans-56" transform="translate(623.189453 0)"/>
     <use xlink:href="#DejaVuSans-28" transform="translate(691.597656 0)"/>
     <use xlink:href="#DejaVuSans-45" transform="translate(730.611328 0)"/>
     <use xlink:href="#DejaVuSans-73" transform="translate(793.794922 0)"/>
     <use xlink:href="#DejaVuSans-74" transform="translate(845.894531 0)"/>
     <use xlink:href="#DejaVuSans-29" transform="translate(885.103516 0)"/>
    </g>
   </g>
   <g id="text_23">
    <!-- LinearReg (fallback) -->
    <g transform="translate(693.672375 384.599375) scale(0.1 -0.1)">
     <defs>
      <path id="DejaVuSans-4c" d="M 628 4666 
L 1259 4666 
L 1259 531 
L 3531 531 
L 3531 0 
L 628 0 
L 628 4666 
z
" transform="scale(0.015625)"/>
      <path id="DejaVuSans-66" d="M 2375 4863 
L 2375 4384 
L 1825 4384 
Q 1516 4384 1395 4259 
Q 1275 4134 1275 3809 
L 1275 3500 
L 2222 3500 
L 2222 3053 
L 1275 3053 
L 1275 0 
L 697 0 
L 697 3053 
L 147 3053 
L 147 3500 
L 697 3500 
L 697 3744 
Q 697 4328 969 4595 
Q 1241 4863 1831 4863 
L 2375 4863 
z
" transform="scale(0.015625)"/>
      <path id="DejaVuSans-62" d="M 3116 1747 
Q 3116 2381 2855 2742 
Q 2594 3103 2138 3103 
Q 1681 3103 1420 2742 
Q 1159 2381 1159 1747 
Q 1159 1113 1420 752 
Q 1681 391 2138 391 
Q 2594 391 2855 752 
Q 3116 1113 3116 1747 
z
M 1159 2969 
Q 1341 3281 1617 3432 
Q 1894 3584 2278 3584 
Q 2916 3584 3314 3078 
Q 3713 2572 3713 1747 
Q 3713 922 3314 415 
Q 2916 -91 2278 -91 
Q 1894 -91 1617 61 
Q 1341 213 1159 525 
L 1159 0 
L 581 0 
L 581 4863 
L 1159 4863 
L 1159 2969 
z
" transform="scale(0.015625)"/>
      <path id="DejaVuSans-6b" d="M 581 4863 
L 1159 4863 
L 1159 1991 
L 2875 3500 
L 3609 3500 
L 1753 1863 
L 3688 0 
L 2938 0 
L 1159 1709 
L 1159 0 
L 581 0 
L 581 4863 
z
" transform="scale(0.015625)"/>
     </defs>
     <use xlink:href="#DejaVuSans-4c"/>
     <use xlink:href="#DejaVuSans-69" transform="translate(55.712891 0)"/>
     <use xlink:href="#DejaVuSans-6e" transform="translate(83.496094 0)"/>
     <use xlink:href="#DejaVuSans-65" transform="translate(146.875 0)"/>
     <use xlink:href="#DejaVuSans-61" transform="translate(208.398438 0)"/>
     <use xlink:href="#DejaVuSans-72" transform="translate(269.677734 0)"/>
     <use xlink:href="#DejaVuSans-52" transform="translate(310.791016 0)"/>
     <use xlink:href="#DejaVuSans-65" transform="translate(375.773438 0)"/>
     <use xlink:href="#DejaVuSans-67" transform="translate(437.296875 0)"/>
     <use xlink:href="#DejaVuSans-20" transform="translate(500.773438 0)"/>
     <use xlink:href="#DejaVuSans-28" transform="translate(532.560547 0)"/>
     <use xlink:href="#DejaVuSans-66" transform="translate(571.574219 0)"/>
     <use xlink:href="#DejaVuSans-61" transform="translate(606.779297 0)"/>
     <use xlink:href="#DejaVuSans-6c" transform="translate(668.058594 0)"/>
     <use xlink:href="#DejaVuSans-6c" transform="translate(695.841797 0)"/>
     <use xlink:href="#DejaVuSans-62" transform="translate(723.625 0)"/>
     <use xlink:href="#DejaVuSans-61" transform="translate(787.101562 0)"/>
     <use xlink:href="#DejaVuSans-63" transform="translate(848.380859 0)"/>
     <use xlink:href="#DejaVuSans-6b" transform="translate(903.361328 0)"/>
     <use xlink:href="#DejaVuSans-29" transform="translate(961.271484 0)"/>
    </g>
   </g>
   <g id="text_24">
    <!-- No ensemble -->
    <g transform="translate(36.072 362.16) scale(0.11 -0.11)">
     <defs>
      <path id="DejaVuSans-Bold-65" d="M 4031 1759 
L 4031 1441 
L 1416 1441 
Q 1456 1047 1700 850 
Q 1944 653 2381 653 
Q 2734 653 3104 758 
Q 3475 863 3866 1075 
L 3866 213 
Q 3469 63 3072 -14 
Q 2675 -91 2278 -91 
Q 1328 -91 801 392 
Q 275 875 275 1747 
Q 275 2603 792 3093 
Q 1309 3584 2216 3584 
Q 3041 3584 3536 3087 
Q 4031 2591 4031 1759 
z
M 2881 2131 
Q 2881 2450 2695 2645 
Q 2509 2841 2209 2841 
Q 1884 2841 1681 2658 
Q 1478 2475 1428 2131 
L 2881 2131 
z
" transform="scale(0.015625)"/>
      <path id="DejaVuSans-Bold-6d" d="M 3781 2919 
Q 3994 3244 4286 3414 
Q 4578 3584 4928 3584 
Q 5531 3584 5847 3212 
Q 6163 2841 6163 2131 
L 6163 0 
L 5038 0 
L 5038 1825 
Q 5041 1866 5042 1909 
Q 5044 1953 5044 2034 
Q 5044 2406 4934 2573 
Q 4825 2741 4581 2741 
Q 4263 2741 4089 2478 
Q 3916 2216 3909 1719 
L 3909 0 
L 2784 0 
L 2784 1825 
Q 2784 2406 2684 2573 
Q 2584 2741 2328 2741 
Q 2006 2741 1831 2477 
Q 1656 2213 1656 1722 
L 1656 0 
L 531 0 
L 531 3500 
L 1656 3500 
L 1656 2988 
Q 1863 3284 2130 3434 
Q 2397 3584 2719 3584 
Q 3081 3584 3359 3409 
Q 3638 3234 3781 2919 
z
" transform="scale(0.015625)"/>
      <path id="DejaVuSans-Bold-62" d="M 2400 722 
Q 2759 722 2948 984 
Q 3138 1247 3138 1747 
Q 3138 2247 2948 2509 
Q 2759 2772 2400 2772 
Q 2041 2772 1848 2508 
Q 1656 2244 1656 1747 
Q 1656 1250 1848 986 
Q 2041 722 2400 722 
z
M 1656 2988 
Q 1888 3294 2169 3439 
Q 2450 3584 2816 3584 
Q 3463 3584 3878 3070 
Q 4294 2556 4294 1747 
Q 4294 938 3878 423 
Q 3463 -91 2816 -91 
Q 2450 -91 2169 54 
Q 1888 200 1656 506 
L 1656 0 
L 538 0 
L 538 4863 
L 1656 4863 
L 1656 2988 
z
" transform="scale(0.015625)"/>
     </defs>
     <use xlink:href="#DejaVuSans-Bold-4e"/>
     <use xlink:href="#DejaVuSans-Bold-6f" transform="translate(83.691406 0)"/>
     <use xlink:href="#DejaVuSans-Bold-20" transform="translate(152.392578 0)"/>
     <use xlink:href="#DejaVuSans-Bold-65" transform="translate(187.207031 0)"/>
     <use xlink:href="#DejaVuSans-Bold-6e" transform="translate(255.029297 0)"/>
     <use xlink:href="#DejaVuSans-Bold-73" transform="translate(326.220703 0)"/>
     <use xlink:href="#DejaVuSans-Bold-65" transform="translate(385.742188 0)"/>
     <use xlink:href="#DejaVuSans-Bold-6d" transform="translate(453.564453 0)"/>
     <use xlink:href="#DejaVuSans-Bold-62" transform="translate(557.763672 0)"/>
     <use xlink:href="#DejaVuSans-Bold-6c" transform="translate(629.345703 0)"/>
     <use xlink:href="#DejaVuSans-Bold-65" transform="translate(663.623047 0)"/>
    </g>
   </g>
   <g id="text_25">
    <!-- Ablation Examples: Step Changes -->
    <g transform="translate(313.689063 21.6) scale(0.14 -0.14)">
     <defs>
      <path id="DejaVuSans-78" d="M 3513 3500 
L 2247 1797 
L 3578 0 
L 2900 0 
L 1881 1375 
L 863 0 
L 184 0 
L 1544 1831 
L 300 3500 
L 978 3500 
L 1906 2253 
L 2834 3500 
L 3513 3500 
z
" transform="scale(0.015625)"/>
      <path id="DejaVuSans-3a" d="M 750 794 
L 1409 794 
L 1409 0 
L 750 0 
L 750 794 
z
M 750 3309 
L 1409 3309 
L 1409 2516 
L 750 2516 
L 750 3309 
z
" transform="scale(0.015625)"/>
     </defs>
     <use xlink:href="#DejaVuSans-41"/>
     <use xlink:href="#DejaVuSans-62" transform="translate(68.408203 0)"/>
     <use xlink:href="#DejaVuSans-6c" transform="translate(131.884766 0)"/>
     <use xlink:href="#DejaVuSans-61" transform="translate(159.667969 0)"/>
     <use xlink:href="#DejaVuSans-74" transform="translate(220.947266 0)"/>
     <use xlink:href="#DejaVuSans-69" transform="translate(260.15625 0)"/>
     <use xlink:href="#DejaVuSans-6f" transform="translate(287.939453 0)"/>
     <use xlink:href="#DejaVuSans-6e" transform="translate(349.121094 0)"/>
     <use xlink:href="#DejaVuSans-20" transform="translate(412.5 0)"/>
     <use xlink:href="#DejaVuSans-45" transform="translate(444.287109 0)"/>
     <use xlink:href="#DejaVuSans-78" transform="translate(507.470703 0)"/>
     <use xlink:href="#DejaVuSans-61" transform="translate(566.650391 0)"/>
     <use xlink:href="#DejaVuSans-6d" transform="translate(627.929688 0)"/>
     <use xlink:href="#DejaVuSans-70" transform="translate(725.341797 0)"/>
     <use xlink:href="#DejaVuSans-6c" transform="translate(788.818359 0)"/>
     <use xlink:href="#DejaVuSans-65" transform="translate(816.601562 0)"/>
     <use xlink:href="#DejaVuSans-73" transform="translate(878.125 0)"/>
     <use xlink:href="#DejaVuSans-3a" transform="translate(930.224609 0)"/>
     <use xlink:href="#DejaVuSans-20" transform="translate(963.916016 0)"/>
     <use xlink:href="#DejaVuSans-53" transform="translate(995.703125 0)"/>
     <use xlink:href="#DejaVuSans-74" transform="translate(1059.179688 0)"/>
     <use xlink:href="#DejaVuSans-65" transform="translate(1098.388672 0)"/>
     <use xlink:href="#DejaVuSans-70" transform="translate(1159.912109 0)"/>
     <use xlink:href="#DejaVuSans-20" transform="translate(1223.388672 0)"/>
     <use xlink:href="#DejaVuSans-43" transform="translate(1255.175781 0)"/>
     <use xlink:href="#DejaVuSans-68" transform="translate(1325 0)"/>
     <use xlink:href="#DejaVuSans-61" transform="translate(1388.378906 0)"/>
     <use xlink:href="#DejaVuSans-6e" transform="translate(1449.658203 0)"/>
     <use xlink:href="#DejaVuSans-67" transform="translate(1513.037109 0)"/>
     <use xlink:href="#DejaVuSans-65" transform="translate(1576.513672 0)"/>
     <use xlink:href="#DejaVuSans-73" transform="translate(1638.037109 0)"/>
    </g>
   </g>
  </g>
 </g>
 <defs>
  <clipPath id="pffdbcaf0db">
   <rect x="10.8" y="27.6" width="842.4" height="393.6"/>
  </clipPath>
 </defs>
</svg>
