<?xml version="1.0" encoding="utf-8" standalone="no"?>
<!DOCTYPE svg PUBLIC "-//W3C//DTD SVG 1.1//EN"
  "http://www.w3.org/Graphics/SVG/1.1/DTD/svg11.dtd">
<svg xmlns:xlink="http://www.w3.org/1999/xlink" width="864pt" height="288pt" viewBox="0 0 864 288" xmlns="http://www.w3.org/2000/svg" version="1.1">
 <metadata>
  <rdf:RDF xmlns:dc="http://purl.org/dc/elements/1.1/" xmlns:cc="http://creativecommons.org/ns#" xmlns:rdf="http://www.w3.org/1999/02/22-rdf-syntax-ns#">
   <cc:Work>
    <dc:type rdf:resource="http://purl.org/dc/dcmitype/StillImage"/>
    <dc:date>2025-11-19T17:42:50.723696</dc:date>
    <dc:format>image/svg+xml</dc:format>
    <dc:creator>
     <cc:Agent>
      <dc:title>Matplotlib v3.10.5, https://matplotlib.org/</dc:title>
     </cc:Agent>
    </dc:creator>
   </cc:Work>
  </rdf:RDF>
 </metadata>
 <defs>
  <style type="text/css">*{stroke-linejoin: round; stroke-linecap: butt}</style>
 </defs>
 <g id="figure_1">
  <g id="patch_1">
   <path d="M 0 288 
L 864 288 
L 864 0 
L 0 0 
z
" style="fill: #ffffff"/>
  </g>
  <g id="axes_1">
   <g id="patch_2">
    <path d="M 10.8 221.04 
L 175.878 221.04 
Q 506.034 221.04 506.034 121.2 
L 506.034 83.76 
Q 506.034 -16.08 175.878 -16.08 
L 10.8 -16.08 
Q -319.356 -16.08 -319.356 83.76 
L -319.356 121.2 
Q -319.356 221.04 10.8 221.04 
z
" clip-path="url(#p92a5d01870)" style="fill: #ffffff; stroke: #333333; stroke-linejoin: miter"/>
   </g>
   <g id="patch_3">
    <path d="M 192.3858 221.04 
L 357.4638 221.04 
Q 687.6198 221.04 687.6198 121.2 
L 687.6198 83.76 
Q 687.6198 -16.08 357.4638 -16.08 
L 192.3858 -16.08 
Q -137.7702 -16.08 -137.7702 83.76 
L -137.7702 121.2 
Q -137.7702 221.04 192.3858 221.04 
z
" clip-path="url(#p92a5d01870)" style="fill: #ffffff; stroke: #333333; stroke-linejoin: miter"/>
   </g>
   <g id="patch_4">
    <path d="M 489.5262 221.04 
L 654.6042 221.04 
Q 984.7602 221.04 984.7602 121.2 
L 984.7602 83.76 
Q 984.7602 -16.08 654.6042 -16.08 
L 489.5262 -16.08 
Q 159.3702 -16.08 159.3702 83.76 
L 159.3702 121.2 
Q 159.3702 221.04 489.5262 221.04 
z
" clip-path="url(#p92a5d01870)" style="fill: #ffffff; stroke: #333333; stroke-linejoin: miter"/>
   </g>
   <g id="patch_5">
    <path d="M 671.112 221.04 
L 836.19 221.04 
Q 1166.346 221.04 1166.346 121.2 
L 1166.346 83.76 
Q 1166.346 -16.08 836.19 -16.08 
L 671.112 -16.08 
Q 340.956 -16.08 340.956 83.76 
L 340.956 121.2 
Q 340.956 221.04 671.112 221.04 
z
" clip-path="url(#p92a5d01870)" style="fill: #ffffff; stroke: #333333; stroke-linejoin: miter"/>
   </g>
   <g id="patch_6">
    <path d="M 192.3858 320.88 
L 357.4638 320.88 
Q 687.6198 320.88 687.6198 221.04 
L 687.6198 183.6 
Q 687.6198 83.76 357.4638 83.76 
L 192.3858 83.76 
Q -137.7702 83.76 -137.7702 183.6 
L -137.7702 221.04 
Q -137.7702 320.88 192.3858 320.88 
z
" clip-path="url(#p92a5d01870)" style="fill: #ffffff; stroke: #333333; stroke-linejoin: miter"/>
   </g>
   <g id="patch_7">
    <path d="M 489.5262 320.88 
L 654.6042 320.88 
Q 984.7602 320.88 984.7602 221.04 
L 984.7602 183.6 
Q 984.7602 83.76 654.6042 83.76 
L 489.5262 83.76 
Q 159.3702 83.76 159.3702 183.6 
L 159.3702 221.04 
Q 159.3702 320.88 489.5262 320.88 
z
" clip-path="url(#p92a5d01870)" style="fill: #ffffff; stroke: #333333; stroke-linejoin: miter"/>
   </g>
   <g id="patch_8">
    <path d="M 175.878 379.536 
L 671.112 379.536 
Q 1001.268 379.536 1001.268 279.696 
L 1001.268 249.744 
Q 1001.268 149.904 671.112 149.904 
L 175.878 149.904 
Q -154.278 149.904 -154.278 249.744 
L -154.278 279.696 
Q -154.278 379.536 175.878 379.536 
z
" clip-path="url(#p92a5d01870)" style="fill: #ffffff; stroke: #333333; stroke-linejoin: miter"/>
   </g>
   <g id="text_1">
    <!-- run_experiment_suite.py -->
    <g transform="translate(31.304625 99.501406) scale(0.1 -0.1)">
     <defs>
      <path id="DejaVuSans-72" d="M 2631 2963 
Q 2534 3019 2420 3045 
Q 2306 3072 2169 3072 
Q 1681 3072 1420 2755 
Q 1159 2438 1159 1844 
L 1159 0 
L 581 0 
L 581 3500 
L 1159 3500 
L 1159 2956 
Q 1341 3275 1631 3429 
Q 1922 3584 2338 3584 
Q 2397 3584 2469 3576 
Q 2541 3569 2628 3553 
L 2631 2963 
z
" transform="scale(0.015625)"/>
      <path id="DejaVuSans-75" d="M 544 1381 
L 544 3500 
L 1119 3500 
L 1119 1403 
Q 1119 906 1312 657 
Q 1506 409 1894 409 
Q 2359 409 2629 706 
Q 2900 1003 2900 1516 
L 2900 3500 
L 3475 3500 
L 3475 0 
L 2900 0 
L 2900 538 
Q 2691 219 2414 64 
Q 2138 -91 1772 -91 
Q 1169 -91 856 284 
Q 544 659 544 1381 
z
M 1991 3584 
L 1991 3584 
z
" transform="scale(0.015625)"/>
      <path id="DejaVuSans-6e" d="M 3513 2113 
L 3513 0 
L 2938 0 
L 2938 2094 
Q 2938 2591 2744 2837 
Q 2550 3084 2163 3084 
Q 1697 3084 1428 2787 
Q 1159 2491 1159 1978 
L 1159 0 
L 581 0 
L 581 3500 
L 1159 3500 
L 1159 2956 
Q 1366 3272 1645 3428 
Q 1925 3584 2291 3584 
Q 2894 3584 3203 3211 
Q 3513 2838 3513 2113 
z
" transform="scale(0.015625)"/>
      <path id="DejaVuSans-5f" d="M 3263 -1063 
L 3263 -1509 
L -63 -1509 
L -63 -1063 
L 3263 -1063 
z
" transform="scale(0.015625)"/>
      <path id="DejaVuSans-65" d="M 3597 1894 
L 3597 1613 
L 953 1613 
Q 991 1019 1311 708 
Q 1631 397 2203 397 
Q 2534 397 2845 478 
Q 3156 559 3463 722 
L 3463 178 
Q 3153 47 2828 -22 
Q 2503 -91 2169 -91 
Q 1331 -91 842 396 
Q 353 884 353 1716 
Q 353 2575 817 3079 
Q 1281 3584 2069 3584 
Q 2775 3584 3186 3129 
Q 3597 2675 3597 1894 
z
M 3022 2063 
Q 3016 2534 2758 2815 
Q 2500 3097 2075 3097 
Q 1594 3097 1305 2825 
Q 1016 2553 972 2059 
L 3022 2063 
z
" transform="scale(0.015625)"/>
      <path id="DejaVuSans-78" d="M 3513 3500 
L 2247 1797 
L 3578 0 
L 2900 0 
L 1881 1375 
L 863 0 
L 184 0 
L 1544 1831 
L 300 3500 
L 978 3500 
L 1906 2253 
L 2834 3500 
L 3513 3500 
z
" transform="scale(0.015625)"/>
      <path id="DejaVuSans-70" d="M 1159 525 
L 1159 -1331 
L 581 -1331 
L 581 3500 
L 1159 3500 
L 1159 2969 
Q 1341 3281 1617 3432 
Q 1894 3584 2278 3584 
Q 2916 3584 3314 3078 
Q 3713 2572 3713 1747 
Q 3713 922 3314 415 
Q 2916 -91 2278 -91 
Q 1894 -91 1617 61 
Q 1341 213 1159 525 
z
M 3116 1747 
Q 3116 2381 2855 2742 
Q 2594 3103 2138 3103 
Q 1681 3103 1420 2742 
Q 1159 2381 1159 1747 
Q 1159 1113 1420 752 
Q 1681 391 2138 391 
Q 2594 391 2855 752 
Q 3116 1113 3116 1747 
z
" transform="scale(0.015625)"/>
      <path id="DejaVuSans-69" d="M 603 3500 
L 1178 3500 
L 1178 0 
L 603 0 
L 603 3500 
z
M 603 4863 
L 1178 4863 
L 1178 4134 
L 603 4134 
L 603 4863 
z
" transform="scale(0.015625)"/>
      <path id="DejaVuSans-6d" d="M 3328 2828 
Q 3544 3216 3844 3400 
Q 4144 3584 4550 3584 
Q 5097 3584 5394 3201 
Q 5691 2819 5691 2113 
L 5691 0 
L 5113 0 
L 5113 2094 
Q 5113 2597 4934 2840 
Q 4756 3084 4391 3084 
Q 3944 3084 3684 2787 
Q 3425 2491 3425 1978 
L 3425 0 
L 2847 0 
L 2847 2094 
Q 2847 2600 2669 2842 
Q 2491 3084 2119 3084 
Q 1678 3084 1418 2786 
Q 1159 2488 1159 1978 
L 1159 0 
L 581 0 
L 581 3500 
L 1159 3500 
L 1159 2956 
Q 1356 3278 1631 3431 
Q 1906 3584 2284 3584 
Q 2666 3584 2933 3390 
Q 3200 3197 3328 2828 
z
" transform="scale(0.015625)"/>
      <path id="DejaVuSans-74" d="M 1172 4494 
L 1172 3500 
L 2356 3500 
L 2356 3053 
L 1172 3053 
L 1172 1153 
Q 1172 725 1289 603 
Q 1406 481 1766 481 
L 2356 481 
L 2356 0 
L 1766 0 
Q 1100 0 847 248 
Q 594 497 594 1153 
L 594 3053 
L 172 3053 
L 172 3500 
L 594 3500 
L 594 4494 
L 1172 4494 
z
" transform="scale(0.015625)"/>
      <path id="DejaVuSans-73" d="M 2834 3397 
L 2834 2853 
Q 2591 2978 2328 3040 
Q 2066 3103 1784 3103 
Q 1356 3103 1142 2972 
Q 928 2841 928 2578 
Q 928 2378 1081 2264 
Q 1234 2150 1697 2047 
L 1894 2003 
Q 2506 1872 2764 1633 
Q 3022 1394 3022 966 
Q 3022 478 2636 193 
Q 2250 -91 1575 -91 
Q 1294 -91 989 -36 
Q 684 19 347 128 
L 347 722 
Q 666 556 975 473 
Q 1284 391 1588 391 
Q 1994 391 2212 530 
Q 2431 669 2431 922 
Q 2431 1156 2273 1281 
Q 2116 1406 1581 1522 
L 1381 1569 
Q 847 1681 609 1914 
Q 372 2147 372 2553 
Q 372 3047 722 3315 
Q 1072 3584 1716 3584 
Q 2034 3584 2315 3537 
Q 2597 3491 2834 3397 
z
" transform="scale(0.015625)"/>
      <path id="DejaVuSans-2e" d="M 684 794 
L 1344 794 
L 1344 0 
L 684 0 
L 684 794 
z
" transform="scale(0.015625)"/>
      <path id="DejaVuSans-79" d="M 2059 -325 
Q 1816 -950 1584 -1140 
Q 1353 -1331 966 -1331 
L 506 -1331 
L 506 -850 
L 844 -850 
Q 1081 -850 1212 -737 
Q 1344 -625 1503 -206 
L 1606 56 
L 191 3500 
L 800 3500 
L 1894 763 
L 2988 3500 
L 3597 3500 
L 2059 -325 
z
" transform="scale(0.015625)"/>
     </defs>
     <use xlink:href="#DejaVuSans-72"/>
     <use xlink:href="#DejaVuSans-75" transform="translate(41.113281 0)"/>
     <use xlink:href="#DejaVuSans-6e" transform="translate(104.492188 0)"/>
     <use xlink:href="#DejaVuSans-5f" transform="translate(167.871094 0)"/>
     <use xlink:href="#DejaVuSans-65" transform="translate(217.871094 0)"/>
     <use xlink:href="#DejaVuSans-78" transform="translate(277.644531 0)"/>
     <use xlink:href="#DejaVuSans-70" transform="translate(336.824219 0)"/>
     <use xlink:href="#DejaVuSans-65" transform="translate(400.300781 0)"/>
     <use xlink:href="#DejaVuSans-72" transform="translate(461.824219 0)"/>
     <use xlink:href="#DejaVuSans-69" transform="translate(502.9375 0)"/>
     <use xlink:href="#DejaVuSans-6d" transform="translate(530.720703 0)"/>
     <use xlink:href="#DejaVuSans-65" transform="translate(628.132812 0)"/>
     <use xlink:href="#DejaVuSans-6e" transform="translate(689.65625 0)"/>
     <use xlink:href="#DejaVuSans-74" transform="translate(753.035156 0)"/>
     <use xlink:href="#DejaVuSans-5f" transform="translate(792.244141 0)"/>
     <use xlink:href="#DejaVuSans-73" transform="translate(842.244141 0)"/>
     <use xlink:href="#DejaVuSans-75" transform="translate(894.34375 0)"/>
     <use xlink:href="#DejaVuSans-69" transform="translate(957.722656 0)"/>
     <use xlink:href="#DejaVuSans-74" transform="translate(985.505859 0)"/>
     <use xlink:href="#DejaVuSans-65" transform="translate(1024.714844 0)"/>
     <use xlink:href="#DejaVuSans-2e" transform="translate(1086.238281 0)"/>
     <use xlink:href="#DejaVuSans-70" transform="translate(1118.025391 0)"/>
     <use xlink:href="#DejaVuSans-79" transform="translate(1181.501953 0)"/>
    </g>
    <!-- (manifest) -->
    <g transform="translate(67.543688 110.977344) scale(0.1 -0.1)">
     <defs>
      <path id="DejaVuSans-28" d="M 1984 4856 
Q 1566 4138 1362 3434 
Q 1159 2731 1159 2009 
Q 1159 1288 1364 580 
Q 1569 -128 1984 -844 
L 1484 -844 
Q 1016 -109 783 600 
Q 550 1309 550 2009 
Q 550 2706 781 3412 
Q 1013 4119 1484 4856 
L 1984 4856 
z
" transform="scale(0.015625)"/>
      <path id="DejaVuSans-61" d="M 2194 1759 
Q 1497 1759 1228 1600 
Q 959 1441 959 1056 
Q 959 750 1161 570 
Q 1363 391 1709 391 
Q 2188 391 2477 730 
Q 2766 1069 2766 1631 
L 2766 1759 
L 2194 1759 
z
M 3341 1997 
L 3341 0 
L 2766 0 
L 2766 531 
Q 2569 213 2275 61 
Q 1981 -91 1556 -91 
Q 1019 -91 701 211 
Q 384 513 384 1019 
Q 384 1609 779 1909 
Q 1175 2209 1959 2209 
L 2766 2209 
L 2766 2266 
Q 2766 2663 2505 2880 
Q 2244 3097 1772 3097 
Q 1472 3097 1187 3025 
Q 903 2953 641 2809 
L 641 3341 
Q 956 3463 1253 3523 
Q 1550 3584 1831 3584 
Q 2591 3584 2966 3190 
Q 3341 2797 3341 1997 
z
" transform="scale(0.015625)"/>
      <path id="DejaVuSans-66" d="M 2375 4863 
L 2375 4384 
L 1825 4384 
Q 1516 4384 1395 4259 
Q 1275 4134 1275 3809 
L 1275 3500 
L 2222 3500 
L 2222 3053 
L 1275 3053 
L 1275 0 
L 697 0 
L 697 3053 
L 147 3053 
L 147 3500 
L 697 3500 
L 697 3744 
Q 697 4328 969 4595 
Q 1241 4863 1831 4863 
L 2375 4863 
z
" transform="scale(0.015625)"/>
      <path id="DejaVuSans-29" d="M 513 4856 
L 1013 4856 
Q 1481 4119 1714 3412 
Q 1947 2706 1947 2009 
Q 1947 1309 1714 600 
Q 1481 -109 1013 -844 
L 513 -844 
Q 928 -128 1133 580 
Q 1338 1288 1338 2009 
Q 1338 2731 1133 3434 
Q 928 4138 513 4856 
z
" transform="scale(0.015625)"/>
     </defs>
     <use xlink:href="#DejaVuSans-28"/>
     <use xlink:href="#DejaVuSans-6d" transform="translate(39.013672 0)"/>
     <use xlink:href="#DejaVuSans-61" transform="translate(136.425781 0)"/>
     <use xlink:href="#DejaVuSans-6e" transform="translate(197.705078 0)"/>
     <use xlink:href="#DejaVuSans-69" transform="translate(261.083984 0)"/>
     <use xlink:href="#DejaVuSans-66" transform="translate(288.867188 0)"/>
     <use xlink:href="#DejaVuSans-65" transform="translate(324.072266 0)"/>
     <use xlink:href="#DejaVuSans-73" transform="translate(385.595703 0)"/>
     <use xlink:href="#DejaVuSans-74" transform="translate(437.695312 0)"/>
     <use xlink:href="#DejaVuSans-29" transform="translate(476.904297 0)"/>
    </g>
   </g>
   <g id="text_2">
    <!-- run_ablation.py -->
    <g transform="translate(236.040425 99.501406) scale(0.1 -0.1)">
     <defs>
      <path id="DejaVuSans-62" d="M 3116 1747 
Q 3116 2381 2855 2742 
Q 2594 3103 2138 3103 
Q 1681 3103 1420 2742 
Q 1159 2381 1159 1747 
Q 1159 1113 1420 752 
Q 1681 391 2138 391 
Q 2594 391 2855 752 
Q 3116 1113 3116 1747 
z
M 1159 2969 
Q 1341 3281 1617 3432 
Q 1894 3584 2278 3584 
Q 2916 3584 3314 3078 
Q 3713 2572 3713 1747 
Q 3713 922 3314 415 
Q 2916 -91 2278 -91 
Q 1894 -91 1617 61 
Q 1341 213 1159 525 
L 1159 0 
L 581 0 
L 581 4863 
L 1159 4863 
L 1159 2969 
z
" transform="scale(0.015625)"/>
      <path id="DejaVuSans-6c" d="M 603 4863 
L 1178 4863 
L 1178 0 
L 603 0 
L 603 4863 
z
" transform="scale(0.015625)"/>
      <path id="DejaVuSans-6f" d="M 1959 3097 
Q 1497 3097 1228 2736 
Q 959 2375 959 1747 
Q 959 1119 1226 758 
Q 1494 397 1959 397 
Q 2419 397 2687 759 
Q 2956 1122 2956 1747 
Q 2956 2369 2687 2733 
Q 2419 3097 1959 3097 
z
M 1959 3584 
Q 2709 3584 3137 3096 
Q 3566 2609 3566 1747 
Q 3566 888 3137 398 
Q 2709 -91 1959 -91 
Q 1206 -91 779 398 
Q 353 888 353 1747 
Q 353 2609 779 3096 
Q 1206 3584 1959 3584 
z
" transform="scale(0.015625)"/>
     </defs>
     <use xlink:href="#DejaVuSans-72"/>
     <use xlink:href="#DejaVuSans-75" transform="translate(41.113281 0)"/>
     <use xlink:href="#DejaVuSans-6e" transform="translate(104.492188 0)"/>
     <use xlink:href="#DejaVuSans-5f" transform="translate(167.871094 0)"/>
     <use xlink:href="#DejaVuSans-61" transform="translate(217.871094 0)"/>
     <use xlink:href="#DejaVuSans-62" transform="translate(279.150391 0)"/>
     <use xlink:href="#DejaVuSans-6c" transform="translate(342.626953 0)"/>
     <use xlink:href="#DejaVuSans-61" transform="translate(370.410156 0)"/>
     <use xlink:href="#DejaVuSans-74" transform="translate(431.689453 0)"/>
     <use xlink:href="#DejaVuSans-69" transform="translate(470.898438 0)"/>
     <use xlink:href="#DejaVuSans-6f" transform="translate(498.681641 0)"/>
     <use xlink:href="#DejaVuSans-6e" transform="translate(559.863281 0)"/>
     <use xlink:href="#DejaVuSans-2e" transform="translate(623.242188 0)"/>
     <use xlink:href="#DejaVuSans-70" transform="translate(655.029297 0)"/>
     <use xlink:href="#DejaVuSans-79" transform="translate(718.505859 0)"/>
    </g>
    <!-- (ablation loops) -->
    <g transform="translate(235.878706 110.977344) scale(0.1 -0.1)">
     <defs>
      <path id="DejaVuSans-20" transform="scale(0.015625)"/>
     </defs>
     <use xlink:href="#DejaVuSans-28"/>
     <use xlink:href="#DejaVuSans-61" transform="translate(39.013672 0)"/>
     <use xlink:href="#DejaVuSans-62" transform="translate(100.292969 0)"/>
     <use xlink:href="#DejaVuSans-6c" transform="translate(163.769531 0)"/>
     <use xlink:href="#DejaVuSans-61" transform="translate(191.552734 0)"/>
     <use xlink:href="#DejaVuSans-74" transform="translate(252.832031 0)"/>
     <use xlink:href="#DejaVuSans-69" transform="translate(292.041016 0)"/>
     <use xlink:href="#DejaVuSans-6f" transform="translate(319.824219 0)"/>
     <use xlink:href="#DejaVuSans-6e" transform="translate(381.005859 0)"/>
     <use xlink:href="#DejaVuSans-20" transform="translate(444.384766 0)"/>
     <use xlink:href="#DejaVuSans-6c" transform="translate(476.171875 0)"/>
     <use xlink:href="#DejaVuSans-6f" transform="translate(503.955078 0)"/>
     <use xlink:href="#DejaVuSans-6f" transform="translate(565.136719 0)"/>
     <use xlink:href="#DejaVuSans-70" transform="translate(626.318359 0)"/>
     <use xlink:href="#DejaVuSans-73" transform="translate(689.794922 0)"/>
     <use xlink:href="#DejaVuSans-29" transform="translate(741.894531 0)"/>
    </g>
   </g>
   <g id="text_3">
    <!-- Pipeline Wrapper -->
    <g transform="translate(529.591762 99.501406) scale(0.1 -0.1)">
     <defs>
      <path id="DejaVuSans-50" d="M 1259 4147 
L 1259 2394 
L 2053 2394 
Q 2494 2394 2734 2622 
Q 2975 2850 2975 3272 
Q 2975 3691 2734 3919 
Q 2494 4147 2053 4147 
L 1259 4147 
z
M 628 4666 
L 2053 4666 
Q 2838 4666 3239 4311 
Q 3641 3956 3641 3272 
Q 3641 2581 3239 2228 
Q 2838 1875 2053 1875 
L 1259 1875 
L 1259 0 
L 628 0 
L 628 4666 
z
" transform="scale(0.015625)"/>
      <path id="DejaVuSans-57" d="M 213 4666 
L 850 4666 
L 1831 722 
L 2809 4666 
L 3519 4666 
L 4500 722 
L 5478 4666 
L 6119 4666 
L 4947 0 
L 4153 0 
L 3169 4050 
L 2175 0 
L 1381 0 
L 213 4666 
z
" transform="scale(0.015625)"/>
     </defs>
     <use xlink:href="#DejaVuSans-50"/>
     <use xlink:href="#DejaVuSans-69" transform="translate(58.052734 0)"/>
     <use xlink:href="#DejaVuSans-70" transform="translate(85.835938 0)"/>
     <use xlink:href="#DejaVuSans-65" transform="translate(149.3125 0)"/>
     <use xlink:href="#DejaVuSans-6c" transform="translate(210.835938 0)"/>
     <use xlink:href="#DejaVuSans-69" transform="translate(238.619141 0)"/>
     <use xlink:href="#DejaVuSans-6e" transform="translate(266.402344 0)"/>
     <use xlink:href="#DejaVuSans-65" transform="translate(329.78125 0)"/>
     <use xlink:href="#DejaVuSans-20" transform="translate(391.304688 0)"/>
     <use xlink:href="#DejaVuSans-57" transform="translate(423.091797 0)"/>
     <use xlink:href="#DejaVuSans-72" transform="translate(517.46875 0)"/>
     <use xlink:href="#DejaVuSans-61" transform="translate(558.582031 0)"/>
     <use xlink:href="#DejaVuSans-70" transform="translate(619.861328 0)"/>
     <use xlink:href="#DejaVuSans-70" transform="translate(683.337891 0)"/>
     <use xlink:href="#DejaVuSans-65" transform="translate(746.814453 0)"/>
     <use xlink:href="#DejaVuSans-72" transform="translate(808.337891 0)"/>
    </g>
    <!-- (model_comparison_results) -->
    <g transform="translate(501.6527 110.699219) scale(0.1 -0.1)">
     <defs>
      <path id="DejaVuSans-64" d="M 2906 2969 
L 2906 4863 
L 3481 4863 
L 3481 0 
L 2906 0 
L 2906 525 
Q 2725 213 2448 61 
Q 2172 -91 1784 -91 
Q 1150 -91 751 415 
Q 353 922 353 1747 
Q 353 2572 751 3078 
Q 1150 3584 1784 3584 
Q 2172 3584 2448 3432 
Q 2725 3281 2906 2969 
z
M 947 1747 
Q 947 1113 1208 752 
Q 1469 391 1925 391 
Q 2381 391 2643 752 
Q 2906 1113 2906 1747 
Q 2906 2381 2643 2742 
Q 2381 3103 1925 3103 
Q 1469 3103 1208 2742 
Q 947 2381 947 1747 
z
" transform="scale(0.015625)"/>
      <path id="DejaVuSans-63" d="M 3122 3366 
L 3122 2828 
Q 2878 2963 2633 3030 
Q 2388 3097 2138 3097 
Q 1578 3097 1268 2742 
Q 959 2388 959 1747 
Q 959 1106 1268 751 
Q 1578 397 2138 397 
Q 2388 397 2633 464 
Q 2878 531 3122 666 
L 3122 134 
Q 2881 22 2623 -34 
Q 2366 -91 2075 -91 
Q 1284 -91 818 406 
Q 353 903 353 1747 
Q 353 2603 823 3093 
Q 1294 3584 2113 3584 
Q 2378 3584 2631 3529 
Q 2884 3475 3122 3366 
z
" transform="scale(0.015625)"/>
     </defs>
     <use xlink:href="#DejaVuSans-28"/>
     <use xlink:href="#DejaVuSans-6d" transform="translate(39.013672 0)"/>
     <use xlink:href="#DejaVuSans-6f" transform="translate(136.425781 0)"/>
     <use xlink:href="#DejaVuSans-64" transform="translate(197.607422 0)"/>
     <use xlink:href="#DejaVuSans-65" transform="translate(261.083984 0)"/>
     <use xlink:href="#DejaVuSans-6c" transform="translate(322.607422 0)"/>
     <use xlink:href="#DejaVuSans-5f" transform="translate(350.390625 0)"/>
     <use xlink:href="#DejaVuSans-63" transform="translate(400.390625 0)"/>
     <use xlink:href="#DejaVuSans-6f" transform="translate(455.371094 0)"/>
     <use xlink:href="#DejaVuSans-6d" transform="translate(516.552734 0)"/>
     <use xlink:href="#DejaVuSans-70" transform="translate(613.964844 0)"/>
     <use xlink:href="#DejaVuSans-61" transform="translate(677.441406 0)"/>
     <use xlink:href="#DejaVuSans-72" transform="translate(738.720703 0)"/>
     <use xlink:href="#DejaVuSans-69" transform="translate(779.833984 0)"/>
     <use xlink:href="#DejaVuSans-73" transform="translate(807.617188 0)"/>
     <use xlink:href="#DejaVuSans-6f" transform="translate(859.716797 0)"/>
     <use xlink:href="#DejaVuSans-6e" transform="translate(920.898438 0)"/>
     <use xlink:href="#DejaVuSans-5f" transform="translate(984.277344 0)"/>
     <use xlink:href="#DejaVuSans-72" transform="translate(1034.277344 0)"/>
     <use xlink:href="#DejaVuSans-65" transform="translate(1073.140625 0)"/>
     <use xlink:href="#DejaVuSans-73" transform="translate(1134.664062 0)"/>
     <use xlink:href="#DejaVuSans-75" transform="translate(1186.763672 0)"/>
     <use xlink:href="#DejaVuSans-6c" transform="translate(1250.142578 0)"/>
     <use xlink:href="#DejaVuSans-74" transform="translate(1277.925781 0)"/>
     <use xlink:href="#DejaVuSans-73" transform="translate(1317.134766 0)"/>
     <use xlink:href="#DejaVuSans-29" transform="translate(1369.234375 0)"/>
    </g>
   </g>
   <g id="text_4">
    <!-- Adapter -->
    <g transform="translate(733.8135 99.501406) scale(0.1 -0.1)">
     <defs>
      <path id="DejaVuSans-41" d="M 2188 4044 
L 1331 1722 
L 3047 1722 
L 2188 4044 
z
M 1831 4666 
L 2547 4666 
L 4325 0 
L 3669 0 
L 3244 1197 
L 1141 1197 
L 716 0 
L 50 0 
L 1831 4666 
z
" transform="scale(0.015625)"/>
     </defs>
     <use xlink:href="#DejaVuSans-41"/>
     <use xlink:href="#DejaVuSans-64" transform="translate(66.658203 0)"/>
     <use xlink:href="#DejaVuSans-61" transform="translate(130.134766 0)"/>
     <use xlink:href="#DejaVuSans-70" transform="translate(191.414062 0)"/>
     <use xlink:href="#DejaVuSans-74" transform="translate(254.890625 0)"/>
     <use xlink:href="#DejaVuSans-65" transform="translate(294.099609 0)"/>
     <use xlink:href="#DejaVuSans-72" transform="translate(355.623047 0)"/>
    </g>
    <!-- (mle_star_generated_pipeline.py) -->
    <g transform="translate(669.842406 110.699219) scale(0.1 -0.1)">
     <defs>
      <path id="DejaVuSans-67" d="M 2906 1791 
Q 2906 2416 2648 2759 
Q 2391 3103 1925 3103 
Q 1463 3103 1205 2759 
Q 947 2416 947 1791 
Q 947 1169 1205 825 
Q 1463 481 1925 481 
Q 2391 481 2648 825 
Q 2906 1169 2906 1791 
z
M 3481 434 
Q 3481 -459 3084 -895 
Q 2688 -1331 1869 -1331 
Q 1566 -1331 1297 -1286 
Q 1028 -1241 775 -1147 
L 775 -588 
Q 1028 -725 1275 -790 
Q 1522 -856 1778 -856 
Q 2344 -856 2625 -561 
Q 2906 -266 2906 331 
L 2906 616 
Q 2728 306 2450 153 
Q 2172 0 1784 0 
Q 1141 0 747 490 
Q 353 981 353 1791 
Q 353 2603 747 3093 
Q 1141 3584 1784 3584 
Q 2172 3584 2450 3431 
Q 2728 3278 2906 2969 
L 2906 3500 
L 3481 3500 
L 3481 434 
z
" transform="scale(0.015625)"/>
     </defs>
     <use xlink:href="#DejaVuSans-28"/>
     <use xlink:href="#DejaVuSans-6d" transform="translate(39.013672 0)"/>
     <use xlink:href="#DejaVuSans-6c" transform="translate(136.425781 0)"/>
     <use xlink:href="#DejaVuSans-65" transform="translate(164.208984 0)"/>
     <use xlink:href="#DejaVuSans-5f" transform="translate(225.732422 0)"/>
     <use xlink:href="#DejaVuSans-73" transform="translate(275.732422 0)"/>
     <use xlink:href="#DejaVuSans-74" transform="translate(327.832031 0)"/>
     <use xlink:href="#DejaVuSans-61" transform="translate(367.041016 0)"/>
     <use xlink:href="#DejaVuSans-72" transform="translate(428.320312 0)"/>
     <use xlink:href="#DejaVuSans-5f" transform="translate(469.433594 0)"/>
     <use xlink:href="#DejaVuSans-67" transform="translate(519.433594 0)"/>
     <use xlink:href="#DejaVuSans-65" transform="translate(582.910156 0)"/>
     <use xlink:href="#DejaVuSans-6e" transform="translate(644.433594 0)"/>
     <use xlink:href="#DejaVuSans-65" transform="translate(707.8125 0)"/>
     <use xlink:href="#DejaVuSans-72" transform="translate(769.335938 0)"/>
     <use xlink:href="#DejaVuSans-61" transform="translate(810.449219 0)"/>
     <use xlink:href="#DejaVuSans-74" transform="translate(871.728516 0)"/>
     <use xlink:href="#DejaVuSans-65" transform="translate(910.9375 0)"/>
     <use xlink:href="#DejaVuSans-64" transform="translate(972.460938 0)"/>
     <use xlink:href="#DejaVuSans-5f" transform="translate(1035.9375 0)"/>
     <use xlink:href="#DejaVuSans-70" transform="translate(1085.9375 0)"/>
     <use xlink:href="#DejaVuSans-69" transform="translate(1149.414062 0)"/>
     <use xlink:href="#DejaVuSans-70" transform="translate(1177.197266 0)"/>
     <use xlink:href="#DejaVuSans-65" transform="translate(1240.673828 0)"/>
     <use xlink:href="#DejaVuSans-6c" transform="translate(1302.197266 0)"/>
     <use xlink:href="#DejaVuSans-69" transform="translate(1329.980469 0)"/>
     <use xlink:href="#DejaVuSans-6e" transform="translate(1357.763672 0)"/>
     <use xlink:href="#DejaVuSans-65" transform="translate(1421.142578 0)"/>
     <use xlink:href="#DejaVuSans-2e" transform="translate(1482.666016 0)"/>
     <use xlink:href="#DejaVuSans-70" transform="translate(1514.453125 0)"/>
     <use xlink:href="#DejaVuSans-79" transform="translate(1577.929688 0)"/>
     <use xlink:href="#DejaVuSans-29" transform="translate(1637.109375 0)"/>
    </g>
   </g>
   <g id="text_5">
    <!-- DatasetLoader -->
    <g transform="translate(238.216988 199.480469) scale(0.1 -0.1)">
     <defs>
      <path id="DejaVuSans-44" d="M 1259 4147 
L 1259 519 
L 2022 519 
Q 2988 519 3436 956 
Q 3884 1394 3884 2338 
Q 3884 3275 3436 3711 
Q 2988 4147 2022 4147 
L 1259 4147 
z
M 628 4666 
L 1925 4666 
Q 3281 4666 3915 4102 
Q 4550 3538 4550 2338 
Q 4550 1131 3912 565 
Q 3275 0 1925 0 
L 628 0 
L 628 4666 
z
" transform="scale(0.015625)"/>
      <path id="DejaVuSans-4c" d="M 628 4666 
L 1259 4666 
L 1259 531 
L 3531 531 
L 3531 0 
L 628 0 
L 628 4666 
z
" transform="scale(0.015625)"/>
     </defs>
     <use xlink:href="#DejaVuSans-44"/>
     <use xlink:href="#DejaVuSans-61" transform="translate(77.001953 0)"/>
     <use xlink:href="#DejaVuSans-74" transform="translate(138.28125 0)"/>
     <use xlink:href="#DejaVuSans-61" transform="translate(177.490234 0)"/>
     <use xlink:href="#DejaVuSans-73" transform="translate(238.769531 0)"/>
     <use xlink:href="#DejaVuSans-65" transform="translate(290.869141 0)"/>
     <use xlink:href="#DejaVuSans-74" transform="translate(352.392578 0)"/>
     <use xlink:href="#DejaVuSans-4c" transform="translate(391.601562 0)"/>
     <use xlink:href="#DejaVuSans-6f" transform="translate(445.564453 0)"/>
     <use xlink:href="#DejaVuSans-61" transform="translate(506.746094 0)"/>
     <use xlink:href="#DejaVuSans-64" transform="translate(568.025391 0)"/>
     <use xlink:href="#DejaVuSans-65" transform="translate(631.501953 0)"/>
     <use xlink:href="#DejaVuSans-72" transform="translate(693.025391 0)"/>
    </g>
    <!-- (load &amp; split) -->
    <g transform="translate(242.741987 210.678281) scale(0.1 -0.1)">
     <defs>
      <path id="DejaVuSans-26" d="M 1556 2509 
Q 1272 2256 1139 2004 
Q 1006 1753 1006 1478 
Q 1006 1022 1337 719 
Q 1669 416 2169 416 
Q 2466 416 2725 514 
Q 2984 613 3213 813 
L 1556 2509 
z
M 1997 2859 
L 3584 1234 
Q 3769 1513 3872 1830 
Q 3975 2147 3994 2503 
L 4575 2503 
Q 4538 2091 4375 1687 
Q 4213 1284 3922 891 
L 4794 0 
L 4006 0 
L 3559 459 
Q 3234 181 2878 45 
Q 2522 -91 2113 -91 
Q 1359 -91 881 339 
Q 403 769 403 1441 
Q 403 1841 612 2192 
Q 822 2544 1241 2853 
Q 1091 3050 1012 3245 
Q 934 3441 934 3628 
Q 934 4134 1281 4442 
Q 1628 4750 2203 4750 
Q 2463 4750 2720 4694 
Q 2978 4638 3244 4525 
L 3244 3956 
Q 2972 4103 2725 4179 
Q 2478 4256 2266 4256 
Q 1938 4256 1733 4082 
Q 1528 3909 1528 3634 
Q 1528 3475 1620 3314 
Q 1713 3153 1997 2859 
z
" transform="scale(0.015625)"/>
     </defs>
     <use xlink:href="#DejaVuSans-28"/>
     <use xlink:href="#DejaVuSans-6c" transform="translate(39.013672 0)"/>
     <use xlink:href="#DejaVuSans-6f" transform="translate(66.796875 0)"/>
     <use xlink:href="#DejaVuSans-61" transform="translate(127.978516 0)"/>
     <use xlink:href="#DejaVuSans-64" transform="translate(189.257812 0)"/>
     <use xlink:href="#DejaVuSans-20" transform="translate(252.734375 0)"/>
     <use xlink:href="#DejaVuSans-26" transform="translate(284.521484 0)"/>
     <use xlink:href="#DejaVuSans-20" transform="translate(362.5 0)"/>
     <use xlink:href="#DejaVuSans-73" transform="translate(394.287109 0)"/>
     <use xlink:href="#DejaVuSans-70" transform="translate(446.386719 0)"/>
     <use xlink:href="#DejaVuSans-6c" transform="translate(509.863281 0)"/>
     <use xlink:href="#DejaVuSans-69" transform="translate(537.646484 0)"/>
     <use xlink:href="#DejaVuSans-74" transform="translate(565.429688 0)"/>
     <use xlink:href="#DejaVuSans-29" transform="translate(604.638672 0)"/>
    </g>
   </g>
   <g id="text_6">
    <!-- Sklearn Pipeline -->
    <g transform="translate(532.174575 199.480469) scale(0.1 -0.1)">
     <defs>
      <path id="DejaVuSans-53" d="M 3425 4513 
L 3425 3897 
Q 3066 4069 2747 4153 
Q 2428 4238 2131 4238 
Q 1616 4238 1336 4038 
Q 1056 3838 1056 3469 
Q 1056 3159 1242 3001 
Q 1428 2844 1947 2747 
L 2328 2669 
Q 3034 2534 3370 2195 
Q 3706 1856 3706 1288 
Q 3706 609 3251 259 
Q 2797 -91 1919 -91 
Q 1588 -91 1214 -16 
Q 841 59 441 206 
L 441 856 
Q 825 641 1194 531 
Q 1563 422 1919 422 
Q 2459 422 2753 634 
Q 3047 847 3047 1241 
Q 3047 1584 2836 1778 
Q 2625 1972 2144 2069 
L 1759 2144 
Q 1053 2284 737 2584 
Q 422 2884 422 3419 
Q 422 4038 858 4394 
Q 1294 4750 2059 4750 
Q 2388 4750 2728 4690 
Q 3069 4631 3425 4513 
z
" transform="scale(0.015625)"/>
      <path id="DejaVuSans-6b" d="M 581 4863 
L 1159 4863 
L 1159 1991 
L 2875 3500 
L 3609 3500 
L 1753 1863 
L 3688 0 
L 2938 0 
L 1159 1709 
L 1159 0 
L 581 0 
L 581 4863 
z
" transform="scale(0.015625)"/>
     </defs>
     <use xlink:href="#DejaVuSans-53"/>
     <use xlink:href="#DejaVuSans-6b" transform="translate(63.476562 0)"/>
     <use xlink:href="#DejaVuSans-6c" transform="translate(121.386719 0)"/>
     <use xlink:href="#DejaVuSans-65" transform="translate(149.169922 0)"/>
     <use xlink:href="#DejaVuSans-61" transform="translate(210.693359 0)"/>
     <use xlink:href="#DejaVuSans-72" transform="translate(271.972656 0)"/>
     <use xlink:href="#DejaVuSans-6e" transform="translate(311.335938 0)"/>
     <use xlink:href="#DejaVuSans-20" transform="translate(374.714844 0)"/>
     <use xlink:href="#DejaVuSans-50" transform="translate(406.501953 0)"/>
     <use xlink:href="#DejaVuSans-69" transform="translate(464.554688 0)"/>
     <use xlink:href="#DejaVuSans-70" transform="translate(492.337891 0)"/>
     <use xlink:href="#DejaVuSans-65" transform="translate(555.814453 0)"/>
     <use xlink:href="#DejaVuSans-6c" transform="translate(617.337891 0)"/>
     <use xlink:href="#DejaVuSans-69" transform="translate(645.121094 0)"/>
     <use xlink:href="#DejaVuSans-6e" transform="translate(672.904297 0)"/>
     <use xlink:href="#DejaVuSans-65" transform="translate(736.283203 0)"/>
    </g>
    <!-- (fit/predict) -->
    <g transform="translate(543.903481 210.678281) scale(0.1 -0.1)">
     <defs>
      <path id="DejaVuSans-2f" d="M 1625 4666 
L 2156 4666 
L 531 -594 
L 0 -594 
L 1625 4666 
z
" transform="scale(0.015625)"/>
     </defs>
     <use xlink:href="#DejaVuSans-28"/>
     <use xlink:href="#DejaVuSans-66" transform="translate(39.013672 0)"/>
     <use xlink:href="#DejaVuSans-69" transform="translate(74.21875 0)"/>
     <use xlink:href="#DejaVuSans-74" transform="translate(102.001953 0)"/>
     <use xlink:href="#DejaVuSans-2f" transform="translate(141.210938 0)"/>
     <use xlink:href="#DejaVuSans-70" transform="translate(174.902344 0)"/>
     <use xlink:href="#DejaVuSans-72" transform="translate(238.378906 0)"/>
     <use xlink:href="#DejaVuSans-65" transform="translate(277.242188 0)"/>
     <use xlink:href="#DejaVuSans-64" transform="translate(338.765625 0)"/>
     <use xlink:href="#DejaVuSans-69" transform="translate(402.242188 0)"/>
     <use xlink:href="#DejaVuSans-63" transform="translate(430.025391 0)"/>
     <use xlink:href="#DejaVuSans-74" transform="translate(485.005859 0)"/>
     <use xlink:href="#DejaVuSans-29" transform="translate(524.214844 0)"/>
    </g>
   </g>
   <g id="text_7">
    <!-- Metrics + Analysis -->
    <g transform="translate(377.377813 261.880469) scale(0.1 -0.1)">
     <defs>
      <path id="DejaVuSans-4d" d="M 628 4666 
L 1569 4666 
L 2759 1491 
L 3956 4666 
L 4897 4666 
L 4897 0 
L 4281 0 
L 4281 4097 
L 3078 897 
L 2444 897 
L 1241 4097 
L 1241 0 
L 628 0 
L 628 4666 
z
" transform="scale(0.015625)"/>
      <path id="DejaVuSans-2b" d="M 2944 4013 
L 2944 2272 
L 4684 2272 
L 4684 1741 
L 2944 1741 
L 2944 0 
L 2419 0 
L 2419 1741 
L 678 1741 
L 678 2272 
L 2419 2272 
L 2419 4013 
L 2944 4013 
z
" transform="scale(0.015625)"/>
     </defs>
     <use xlink:href="#DejaVuSans-4d"/>
     <use xlink:href="#DejaVuSans-65" transform="translate(86.279297 0)"/>
     <use xlink:href="#DejaVuSans-74" transform="translate(147.802734 0)"/>
     <use xlink:href="#DejaVuSans-72" transform="translate(187.011719 0)"/>
     <use xlink:href="#DejaVuSans-69" transform="translate(228.125 0)"/>
     <use xlink:href="#DejaVuSans-63" transform="translate(255.908203 0)"/>
     <use xlink:href="#DejaVuSans-73" transform="translate(310.888672 0)"/>
     <use xlink:href="#DejaVuSans-20" transform="translate(362.988281 0)"/>
     <use xlink:href="#DejaVuSans-2b" transform="translate(394.775391 0)"/>
     <use xlink:href="#DejaVuSans-20" transform="translate(478.564453 0)"/>
     <use xlink:href="#DejaVuSans-41" transform="translate(510.351562 0)"/>
     <use xlink:href="#DejaVuSans-6e" transform="translate(578.759766 0)"/>
     <use xlink:href="#DejaVuSans-61" transform="translate(642.138672 0)"/>
     <use xlink:href="#DejaVuSans-6c" transform="translate(703.417969 0)"/>
     <use xlink:href="#DejaVuSans-79" transform="translate(731.201172 0)"/>
     <use xlink:href="#DejaVuSans-73" transform="translate(790.380859 0)"/>
     <use xlink:href="#DejaVuSans-69" transform="translate(842.480469 0)"/>
     <use xlink:href="#DejaVuSans-73" transform="translate(870.263672 0)"/>
    </g>
    <!-- (summary, pairwise, plots) -->
    <g transform="translate(356.614531 273.078281) scale(0.1 -0.1)">
     <defs>
      <path id="DejaVuSans-2c" d="M 750 794 
L 1409 794 
L 1409 256 
L 897 -744 
L 494 -744 
L 750 256 
L 750 794 
z
" transform="scale(0.015625)"/>
      <path id="DejaVuSans-77" d="M 269 3500 
L 844 3500 
L 1563 769 
L 2278 3500 
L 2956 3500 
L 3675 769 
L 4391 3500 
L 4966 3500 
L 4050 0 
L 3372 0 
L 2619 2869 
L 1863 0 
L 1184 0 
L 269 3500 
z
" transform="scale(0.015625)"/>
     </defs>
     <use xlink:href="#DejaVuSans-28"/>
     <use xlink:href="#DejaVuSans-73" transform="translate(39.013672 0)"/>
     <use xlink:href="#DejaVuSans-75" transform="translate(91.113281 0)"/>
     <use xlink:href="#DejaVuSans-6d" transform="translate(154.492188 0)"/>
     <use xlink:href="#DejaVuSans-6d" transform="translate(251.904297 0)"/>
     <use xlink:href="#DejaVuSans-61" transform="translate(349.316406 0)"/>
     <use xlink:href="#DejaVuSans-72" transform="translate(410.595703 0)"/>
     <use xlink:href="#DejaVuSans-79" transform="translate(451.708984 0)"/>
     <use xlink:href="#DejaVuSans-2c" transform="translate(510.888672 0)"/>
     <use xlink:href="#DejaVuSans-20" transform="translate(542.675781 0)"/>
     <use xlink:href="#DejaVuSans-70" transform="translate(574.462891 0)"/>
     <use xlink:href="#DejaVuSans-61" transform="translate(637.939453 0)"/>
     <use xlink:href="#DejaVuSans-69" transform="translate(699.21875 0)"/>
     <use xlink:href="#DejaVuSans-72" transform="translate(727.001953 0)"/>
     <use xlink:href="#DejaVuSans-77" transform="translate(768.115234 0)"/>
     <use xlink:href="#DejaVuSans-69" transform="translate(849.902344 0)"/>
     <use xlink:href="#DejaVuSans-73" transform="translate(877.685547 0)"/>
     <use xlink:href="#DejaVuSans-65" transform="translate(929.785156 0)"/>
     <use xlink:href="#DejaVuSans-2c" transform="translate(991.308594 0)"/>
     <use xlink:href="#DejaVuSans-20" transform="translate(1023.095703 0)"/>
     <use xlink:href="#DejaVuSans-70" transform="translate(1054.882812 0)"/>
     <use xlink:href="#DejaVuSans-6c" transform="translate(1118.359375 0)"/>
     <use xlink:href="#DejaVuSans-6f" transform="translate(1146.142578 0)"/>
     <use xlink:href="#DejaVuSans-74" transform="translate(1207.324219 0)"/>
     <use xlink:href="#DejaVuSans-73" transform="translate(1246.533203 0)"/>
     <use xlink:href="#DejaVuSans-29" transform="translate(1298.632812 0)"/>
    </g>
   </g>
   <g id="patch_9">
    <path d="M 177.881022 102.48 
Q 208.896625 102.48 238.570587 102.48 
" style="fill: none; stroke: #333333; stroke-width: 1.2; stroke-linecap: round"/>
    <path d="M 234.570587 100.48 
L 238.570587 102.48 
L 234.570587 104.48 
" style="fill: none; stroke: #333333; stroke-width: 1.2; stroke-linecap: round"/>
   </g>
   <g id="patch_10">
    <path d="M 326.450718 102.48 
Q 406.990637 102.48 486.188915 102.48 
" style="fill: none; stroke: #333333; stroke-width: 1.2; stroke-linecap: round"/>
    <path d="M 482.188915 100.48 
L 486.188915 102.48 
L 482.188915 104.48 
" style="fill: none; stroke: #333333; stroke-width: 1.2; stroke-linecap: round"/>
   </g>
   <g id="patch_11">
    <path d="M 656.607222 102.48 
Q 687.622825 102.48 717.296787 102.48 
" style="fill: none; stroke: #333333; stroke-width: 1.2; stroke-linecap: round"/>
    <path d="M 713.296787 100.48 
L 717.296787 102.48 
L 713.296787 104.48 
" style="fill: none; stroke: #333333; stroke-width: 1.2; stroke-linecap: round"/>
   </g>
   <g id="patch_12">
    <path d="M 324.4482 116.96073 
Q 324.4482 143.665046 324.4482 169.027721 
" style="fill: none; stroke: #333333; stroke-width: 1.2; stroke-linecap: round"/>
    <path d="M 326.4482 165.027721 
L 324.4482 169.027721 
L 322.4482 165.027721 
" style="fill: none; stroke: #333333; stroke-width: 1.2; stroke-linecap: round"/>
   </g>
   <g id="patch_13">
    <path d="M 522.5418 116.96073 
Q 522.5418 143.665046 522.5418 169.027721 
" style="fill: none; stroke: #333333; stroke-width: 1.2; stroke-linecap: round"/>
    <path d="M 524.5418 165.027721 
L 522.5418 169.027721 
L 520.5418 165.027721 
" style="fill: none; stroke: #333333; stroke-width: 1.2; stroke-linecap: round"/>
   </g>
   <g id="patch_14">
    <path d="M 570.067216 172.368 
Q 547.303807 172.368 525.882038 172.368 
" style="fill: none; stroke: #333333; stroke-width: 1.2; stroke-linecap: round"/>
    <path d="M 529.882038 174.368 
L 525.882038 172.368 
L 529.882038 170.368 
" style="fill: none; stroke: #333333; stroke-width: 1.2; stroke-linecap: round"/>
   </g>
   <g id="patch_15">
    <path d="M 423.495 236.769797 
Q 423.495 241.009939 423.495 243.90844 
" style="fill: none; stroke: #333333; stroke-width: 1.2; stroke-linecap: round"/>
    <path d="M 425.495 239.90844 
L 423.495 243.90844 
L 421.495 239.90844 
" style="fill: none; stroke: #333333; stroke-width: 1.2; stroke-linecap: round"/>
   </g>
   <g id="text_8">
    <!-- High-level Experiment Flow -->
    <g transform="translate(327.359844 21.6) scale(0.14 -0.14)">
     <defs>
      <path id="DejaVuSans-48" d="M 628 4666 
L 1259 4666 
L 1259 2753 
L 3553 2753 
L 3553 4666 
L 4184 4666 
L 4184 0 
L 3553 0 
L 3553 2222 
L 1259 2222 
L 1259 0 
L 628 0 
L 628 4666 
z
" transform="scale(0.015625)"/>
      <path id="DejaVuSans-68" d="M 3513 2113 
L 3513 0 
L 2938 0 
L 2938 2094 
Q 2938 2591 2744 2837 
Q 2550 3084 2163 3084 
Q 1697 3084 1428 2787 
Q 1159 2491 1159 1978 
L 1159 0 
L 581 0 
L 581 4863 
L 1159 4863 
L 1159 2956 
Q 1366 3272 1645 3428 
Q 1925 3584 2291 3584 
Q 2894 3584 3203 3211 
Q 3513 2838 3513 2113 
z
" transform="scale(0.015625)"/>
      <path id="DejaVuSans-2d" d="M 313 2009 
L 1997 2009 
L 1997 1497 
L 313 1497 
L 313 2009 
z
" transform="scale(0.015625)"/>
      <path id="DejaVuSans-76" d="M 191 3500 
L 800 3500 
L 1894 563 
L 2988 3500 
L 3597 3500 
L 2284 0 
L 1503 0 
L 191 3500 
z
" transform="scale(0.015625)"/>
      <path id="DejaVuSans-45" d="M 628 4666 
L 3578 4666 
L 3578 4134 
L 1259 4134 
L 1259 2753 
L 3481 2753 
L 3481 2222 
L 1259 2222 
L 1259 531 
L 3634 531 
L 3634 0 
L 628 0 
L 628 4666 
z
" transform="scale(0.015625)"/>
      <path id="DejaVuSans-46" d="M 628 4666 
L 3309 4666 
L 3309 4134 
L 1259 4134 
L 1259 2759 
L 3109 2759 
L 3109 2228 
L 1259 2228 
L 1259 0 
L 628 0 
L 628 4666 
z
" transform="scale(0.015625)"/>
     </defs>
     <use xlink:href="#DejaVuSans-48"/>
     <use xlink:href="#DejaVuSans-69" transform="translate(75.195312 0)"/>
     <use xlink:href="#DejaVuSans-67" transform="translate(102.978516 0)"/>
     <use xlink:href="#DejaVuSans-68" transform="translate(166.455078 0)"/>
     <use xlink:href="#DejaVuSans-2d" transform="translate(229.833984 0)"/>
     <use xlink:href="#DejaVuSans-6c" transform="translate(265.917969 0)"/>
     <use xlink:href="#DejaVuSans-65" transform="translate(293.701172 0)"/>
     <use xlink:href="#DejaVuSans-76" transform="translate(355.224609 0)"/>
     <use xlink:href="#DejaVuSans-65" transform="translate(414.404297 0)"/>
     <use xlink:href="#DejaVuSans-6c" transform="translate(475.927734 0)"/>
     <use xlink:href="#DejaVuSans-20" transform="translate(503.710938 0)"/>
     <use xlink:href="#DejaVuSans-45" transform="translate(535.498047 0)"/>
     <use xlink:href="#DejaVuSans-78" transform="translate(598.681641 0)"/>
     <use xlink:href="#DejaVuSans-70" transform="translate(657.861328 0)"/>
     <use xlink:href="#DejaVuSans-65" transform="translate(721.337891 0)"/>
     <use xlink:href="#DejaVuSans-72" transform="translate(782.861328 0)"/>
     <use xlink:href="#DejaVuSans-69" transform="translate(823.974609 0)"/>
     <use xlink:href="#DejaVuSans-6d" transform="translate(851.757812 0)"/>
     <use xlink:href="#DejaVuSans-65" transform="translate(949.169922 0)"/>
     <use xlink:href="#DejaVuSans-6e" transform="translate(1010.693359 0)"/>
     <use xlink:href="#DejaVuSans-74" transform="translate(1074.072266 0)"/>
     <use xlink:href="#DejaVuSans-20" transform="translate(1113.28125 0)"/>
     <use xlink:href="#DejaVuSans-46" transform="translate(1145.068359 0)"/>
     <use xlink:href="#DejaVuSans-6c" transform="translate(1202.587891 0)"/>
     <use xlink:href="#DejaVuSans-6f" transform="translate(1230.371094 0)"/>
     <use xlink:href="#DejaVuSans-77" transform="translate(1291.552734 0)"/>
    </g>
   </g>
  </g>
 </g>
 <defs>
  <clipPath id="p92a5d01870">
   <rect x="10.8" y="27.6" width="825.39" height="249.6"/>
  </clipPath>
 </defs>
</svg>
